<svg width="75" height="75" viewBox="0 0 75 75" fill="none" xmlns="http://www.w3.org/2000/svg">
<path fill-rule="evenodd" clip-rule="evenodd" d="M37.5 0C16.7893 0 0 16.7893 0 37.5C0 58.2107 16.7893 75 37.5 75C58.2107 75 75 58.2107 75 37.5C75 16.7893 58.2107 0 37.5 0ZM29.2551 17.6208C31.3881 17.5238 32.0699 17.5 37.4987 17.5C42.9293 17.5 43.6086 17.5238 45.7415 17.6208C47.8707 17.7183 49.3249 18.0554 50.5999 18.55C51.9166 19.0604 53.0291 19.7438 54.1416 20.8563C55.2541 21.968 55.9375 23.0838 56.45 24.3992C56.9417 25.6709 57.2792 27.1243 57.3792 29.2535C57.475 31.3868 57.5 32.0685 57.5 37.5002C57.5 42.9319 57.475 43.6119 57.3792 45.7453C57.2792 47.8736 56.9417 49.3274 56.45 50.5995C55.9375 51.9145 55.2541 53.0304 54.1416 54.142C53.0304 55.2546 51.9162 55.9396 50.6012 56.4504C49.3287 56.945 47.8736 57.2821 45.7445 57.3796C43.6111 57.4767 42.9315 57.5004 37.4994 57.5004C32.0681 57.5004 31.3868 57.4767 29.2535 57.3796C27.1247 57.2821 25.6709 56.945 24.3984 56.4504C23.0838 55.9396 21.968 55.2546 20.8567 54.142C19.7446 53.0304 19.0613 51.9145 18.55 50.5991C18.0558 49.3274 17.7188 47.8741 17.6208 45.7449C17.5242 43.6115 17.5 42.9319 17.5 37.5002C17.5 32.0685 17.525 31.3864 17.6204 29.253C17.7163 27.1247 18.0538 25.6709 18.5496 24.3988C19.0621 23.0838 19.7454 21.968 20.858 20.8563C21.9696 19.7442 23.0855 19.0609 24.4009 18.55C25.6726 18.0554 27.1259 17.7183 29.2551 17.6208ZM37.4987 17.5C37.4998 17.5 37.5008 17.5 37.5019 17.5H37.4956C37.4967 17.5 37.4977 17.5 37.4987 17.5Z" fill="white"/>
<path fill-rule="evenodd" clip-rule="evenodd" d="M35.7078 21.1041C36.0562 21.1036 36.4309 21.1037 36.8354 21.1039L37.502 21.1041C42.842 21.1041 43.4749 21.1233 45.5837 21.2191C47.5337 21.3083 48.5921 21.6341 49.2971 21.9079C50.2304 22.2704 50.8958 22.7037 51.5954 23.4037C52.2954 24.1037 52.7288 24.7704 53.0921 25.7038C53.3659 26.4079 53.6921 27.4663 53.7809 29.4163C53.8767 31.5246 53.8975 32.158 53.8975 37.4955C53.8975 42.8331 53.8767 43.4664 53.7809 45.5748C53.6917 47.5248 53.3659 48.5832 53.0921 49.2873C52.7296 50.2207 52.2954 50.8853 51.5954 51.5849C50.8954 52.2849 50.2308 52.7182 49.2971 53.0807C48.5929 53.3557 47.5337 53.6807 45.5837 53.7699C43.4754 53.8657 42.842 53.8865 37.502 53.8865C32.1615 53.8865 31.5286 53.8657 29.4202 53.7699C27.4702 53.6799 26.4118 53.354 25.7064 53.0803C24.7731 52.7178 24.1064 52.2844 23.4064 51.5844C22.7064 50.8844 22.2731 50.2194 21.9097 49.2857C21.636 48.5815 21.3097 47.5231 21.221 45.5731C21.1251 43.4648 21.106 42.8314 21.106 37.4905C21.106 32.1497 21.1251 31.5196 21.221 29.4113C21.3101 27.4613 21.636 26.4029 21.9097 25.6979C22.2722 24.7646 22.7064 24.0979 23.4064 23.3979C24.1064 22.6979 24.7731 22.2645 25.7064 21.9012C26.4114 21.6262 27.4702 21.3012 29.4202 21.2116C31.2652 21.1283 31.9802 21.1033 35.7078 21.0991V21.1041ZM48.1779 24.425C46.8529 24.425 45.7779 25.4988 45.7779 26.8242C45.7779 28.1492 46.8529 29.2242 48.1779 29.2242C49.5029 29.2242 50.5779 28.1492 50.5779 26.8242C50.5779 25.4992 49.5029 24.4242 48.1779 24.4242V24.425ZM27.231 37.5001C27.231 31.8281 31.8296 27.2294 37.5015 27.2292C43.1737 27.2292 47.7712 31.828 47.7712 37.5001C47.7712 43.1723 43.1741 47.769 37.502 47.769C31.8298 47.769 27.231 43.1723 27.231 37.5001Z" fill="white"/>
<path d="M37.5017 30.8335C41.1834 30.8335 44.1684 33.8181 44.1684 37.5002C44.1684 41.1819 41.1834 44.167 37.5017 44.167C33.8196 44.167 30.835 41.1819 30.835 37.5002C30.835 33.8181 33.8196 30.8335 37.5017 30.8335V30.8335Z" fill="white"/>
</svg>

