<svg width="24" height="25" viewBox="0 0 24 25" fill="none" xmlns="http://www.w3.org/2000/svg">
<g id="Frame">
<path id="Vector" d="M12 4.85198C14.403 4.85198 14.688 4.86098 15.637 4.90398C16.514 4.94398 16.991 5.09098 17.308 5.21398C17.728 5.37698 18.028 5.57198 18.343 5.88698C18.658 6.20198 18.853 6.50198 19.016 6.92198C19.139 7.23898 19.286 7.71598 19.326 8.59298C19.369 9.54198 19.378 9.82698 19.378 12.23C19.378 14.633 19.369 14.918 19.326 15.867C19.286 16.744 19.139 17.221 19.016 17.538C18.853 17.958 18.658 18.258 18.343 18.573C18.028 18.888 17.728 19.083 17.308 19.246C16.991 19.369 16.514 19.516 15.637 19.556C14.688 19.599 14.404 19.608 12 19.608C9.596 19.608 9.312 19.599 8.363 19.556C7.486 19.516 7.009 19.369 6.692 19.246C6.272 19.083 5.972 18.888 5.657 18.573C5.342 18.258 5.147 17.958 4.984 17.538C4.861 17.221 4.714 16.744 4.674 15.867C4.631 14.918 4.622 14.633 4.622 12.23C4.622 9.82698 4.631 9.54198 4.674 8.59298C4.714 7.71598 4.861 7.23898 4.984 6.92198C5.147 6.50198 5.342 6.20198 5.657 5.88698C5.972 5.57198 6.272 5.37698 6.692 5.21398C7.009 5.09098 7.486 4.94398 8.363 4.90398C9.312 4.86098 9.597 4.85198 12 4.85198ZM12 3.22998C9.556 3.22998 9.249 3.23998 8.289 3.28398C7.331 3.32798 6.677 3.47998 6.105 3.70198C5.513 3.93198 5.011 4.23998 4.511 4.74098C4.011 5.24098 3.703 5.74298 3.473 6.33498C3.25 6.90698 3.098 7.56098 3.054 8.51898C3.01 9.47898 3 9.78598 3 12.23C3 14.674 3.01 14.981 3.054 15.941C3.098 16.899 3.25 17.553 3.472 18.126C3.702 18.718 4.01 19.22 4.51 19.72C5.01 20.22 5.512 20.528 6.104 20.758C6.676 20.98 7.331 21.133 8.289 21.176C9.249 21.22 9.556 21.23 12 21.23C14.444 21.23 14.751 21.22 15.711 21.176C16.669 21.132 17.323 20.98 17.896 20.758C18.488 20.528 18.99 20.22 19.49 19.72C19.99 19.22 20.298 18.718 20.528 18.126C20.75 17.554 20.903 16.899 20.946 15.941C20.99 14.981 21 14.674 21 12.23C21 9.78598 20.99 9.47898 20.946 8.51898C20.902 7.56098 20.75 6.90698 20.528 6.33398C20.298 5.74198 19.99 5.23998 19.49 4.73998C18.99 4.23998 18.488 3.93198 17.896 3.70198C17.324 3.47998 16.669 3.32698 15.711 3.28398C14.751 3.23998 14.444 3.22998 12 3.22998ZM12 7.60798C9.448 7.60798 7.378 9.67698 7.378 12.23C7.378 14.783 9.448 16.852 12 16.852C14.552 16.852 16.622 14.783 16.622 12.23C16.622 9.67698 14.552 7.60798 12 7.60798ZM12 15.23C10.343 15.23 9 13.887 9 12.23C9 10.573 10.343 9.22998 12 9.22998C13.657 9.22998 15 10.573 15 12.23C15 13.887 13.657 15.23 12 15.23ZM16.804 6.34598C16.208 6.34598 15.724 6.82998 15.724 7.42598C15.724 8.02198 16.208 8.50598 16.804 8.50598C17.4 8.50598 17.884 8.02198 17.884 7.42598C17.884 6.82998 17.401 6.34598 16.804 6.34598Z" fill="white"/>
</g>
</svg>
