<svg width="24" height="25" viewBox="0 0 24 25" fill="none" xmlns="http://www.w3.org/2000/svg">
<path d="M19.7 3.22998H4.3C3.582 3.22998 3 3.81198 3 4.52998V19.93C3 20.648 3.582 21.23 4.3 21.23H19.7C20.418 21.23 21 20.648 21 19.93V4.52998C21 3.81198 20.418 3.22998 19.7 3.22998ZM8.339 18.568H5.667V9.97798H8.339V18.568ZM7.004 8.80398C6.147 8.80398 5.455 8.10998 5.455 7.25598C5.455 6.40098 6.146 5.70798 7.004 5.70798C7.858 5.70798 8.551 6.40198 8.551 7.25598C8.551 8.11098 7.858 8.80398 7.004 8.80398ZM18.339 18.568H15.67V14.391C15.67 13.395 15.653 12.113 14.283 12.113C12.894 12.113 12.682 13.199 12.682 14.319V18.568H10.015V9.97798H12.574V11.152H12.611C12.967 10.477 13.838 9.76498 15.137 9.76498C17.84 9.76498 18.34 11.544 18.34 13.857L18.339 18.568Z" fill="white"/>
</svg>
