<svg xmlns="http://www.w3.org/2000/svg" xmlns:xlink="http://www.w3.org/1999/xlink" width="500" zoomAndPan="magnify" viewBox="0 0 375 93.749996" height="125" preserveAspectRatio="xMidYMid meet" version="1.0"><defs><g/></defs><g fill="#a6a6a6" fill-opacity="1"><g transform="translate(98.007333, 53.34918)"><g><path d="M 12.703125 -30.875 C 16.546875 -30.875 19.378906 -30.144531 21.203125 -28.6875 C 23.035156 -27.226562 23.953125 -25.03125 23.953125 -22.09375 C 23.953125 -20.445312 23.648438 -19.078125 23.046875 -17.984375 C 22.441406 -16.890625 21.671875 -16.007812 20.734375 -15.34375 C 19.796875 -14.6875 18.804688 -14.179688 17.765625 -13.828125 L 26.25 0 L 21.703125 0 L 14.21875 -12.75 L 8.078125 -12.75 L 8.078125 0 L 4.1875 0 L 4.1875 -30.875 Z M 12.5 -27.5 L 8.078125 -27.5 L 8.078125 -16.046875 L 12.703125 -16.046875 C 15.210938 -16.046875 17.046875 -16.539062 18.203125 -17.53125 C 19.359375 -18.519531 19.9375 -19.984375 19.9375 -21.921875 C 19.9375 -23.941406 19.328125 -25.375 18.109375 -26.21875 C 16.898438 -27.070312 15.03125 -27.5 12.5 -27.5 Z M 12.5 -27.5 "/></g></g></g><g fill="#a6a6a6" fill-opacity="1"><g transform="translate(124.241547, 53.34918)"><g><path d="M 12.453125 -23.5625 C 15.273438 -23.5625 17.363281 -22.941406 18.71875 -21.703125 C 20.070312 -20.460938 20.75 -18.488281 20.75 -15.78125 L 20.75 0 L 17.984375 0 L 17.25 -3.28125 L 17.078125 -3.28125 C 16.066406 -2.019531 15 -1.082031 13.875 -0.46875 C 12.75 0.132812 11.222656 0.4375 9.296875 0.4375 C 7.191406 0.4375 5.445312 -0.113281 4.0625 -1.21875 C 2.675781 -2.332031 1.984375 -4.070312 1.984375 -6.4375 C 1.984375 -8.75 2.890625 -10.53125 4.703125 -11.78125 C 6.523438 -13.03125 9.320312 -13.710938 13.09375 -13.828125 L 17.03125 -13.96875 L 17.03125 -15.34375 C 17.03125 -17.28125 16.613281 -18.625 15.78125 -19.375 C 14.945312 -20.125 13.765625 -20.5 12.234375 -20.5 C 11.023438 -20.5 9.875 -20.316406 8.78125 -19.953125 C 7.6875 -19.585938 6.660156 -19.175781 5.703125 -18.71875 L 4.546875 -21.578125 C 5.546875 -22.117188 6.738281 -22.582031 8.125 -22.96875 C 9.507812 -23.363281 10.953125 -23.5625 12.453125 -23.5625 Z M 16.984375 -11.328125 L 13.578125 -11.203125 C 10.691406 -11.085938 8.691406 -10.625 7.578125 -9.8125 C 6.472656 -9.007812 5.921875 -7.875 5.921875 -6.40625 C 5.921875 -5.101562 6.316406 -4.148438 7.109375 -3.546875 C 7.898438 -2.941406 8.914062 -2.640625 10.15625 -2.640625 C 12.09375 -2.640625 13.710938 -3.175781 15.015625 -4.25 C 16.328125 -5.332031 16.984375 -7 16.984375 -9.25 Z M 16.984375 -11.328125 "/></g></g></g><g fill="#a6a6a6" fill-opacity="1"><g transform="translate(147.839348, 53.34918)"><g><path d="M 14.359375 -20.234375 L 8.515625 -20.234375 L 8.515625 0 L 4.71875 0 L 4.71875 -20.234375 L 0.65625 -20.234375 L 0.65625 -22 L 4.71875 -23.296875 L 4.71875 -24.640625 C 4.71875 -27.640625 5.367188 -29.796875 6.671875 -31.109375 C 7.984375 -32.421875 9.835938 -33.078125 12.234375 -33.078125 C 13.128906 -33.078125 13.960938 -32.992188 14.734375 -32.828125 C 15.515625 -32.671875 16.179688 -32.492188 16.734375 -32.296875 L 15.734375 -29.3125 C 15.273438 -29.457031 14.742188 -29.601562 14.140625 -29.75 C 13.535156 -29.894531 12.914062 -29.96875 12.28125 -29.96875 C 11.007812 -29.96875 10.0625 -29.539062 9.4375 -28.6875 C 8.820312 -27.832031 8.515625 -26.5 8.515625 -24.6875 L 8.515625 -23.171875 L 14.359375 -23.171875 Z M 14.359375 -20.234375 "/></g></g></g><g fill="#a6a6a6" fill-opacity="1"><g transform="translate(162.058413, 53.34918)"><g><path d="M 12.453125 -23.5625 C 15.273438 -23.5625 17.363281 -22.941406 18.71875 -21.703125 C 20.070312 -20.460938 20.75 -18.488281 20.75 -15.78125 L 20.75 0 L 17.984375 0 L 17.25 -3.28125 L 17.078125 -3.28125 C 16.066406 -2.019531 15 -1.082031 13.875 -0.46875 C 12.75 0.132812 11.222656 0.4375 9.296875 0.4375 C 7.191406 0.4375 5.445312 -0.113281 4.0625 -1.21875 C 2.675781 -2.332031 1.984375 -4.070312 1.984375 -6.4375 C 1.984375 -8.75 2.890625 -10.53125 4.703125 -11.78125 C 6.523438 -13.03125 9.320312 -13.710938 13.09375 -13.828125 L 17.03125 -13.96875 L 17.03125 -15.34375 C 17.03125 -17.28125 16.613281 -18.625 15.78125 -19.375 C 14.945312 -20.125 13.765625 -20.5 12.234375 -20.5 C 11.023438 -20.5 9.875 -20.316406 8.78125 -19.953125 C 7.6875 -19.585938 6.660156 -19.175781 5.703125 -18.71875 L 4.546875 -21.578125 C 5.546875 -22.117188 6.738281 -22.582031 8.125 -22.96875 C 9.507812 -23.363281 10.953125 -23.5625 12.453125 -23.5625 Z M 16.984375 -11.328125 L 13.578125 -11.203125 C 10.691406 -11.085938 8.691406 -10.625 7.578125 -9.8125 C 6.472656 -9.007812 5.921875 -7.875 5.921875 -6.40625 C 5.921875 -5.101562 6.316406 -4.148438 7.109375 -3.546875 C 7.898438 -2.941406 8.914062 -2.640625 10.15625 -2.640625 C 12.09375 -2.640625 13.710938 -3.175781 15.015625 -4.25 C 16.328125 -5.332031 16.984375 -7 16.984375 -9.25 Z M 16.984375 -11.328125 "/></g></g></g><g fill="#a6a6a6" fill-opacity="1"><g transform="translate(185.656211, 53.34918)"><g><path d="M 12.625 -23.609375 C 14.582031 -23.609375 16.28125 -23.175781 17.71875 -22.3125 C 19.164062 -21.445312 20.269531 -20.226562 21.03125 -18.65625 C 21.789062 -17.082031 22.171875 -15.242188 22.171875 -13.140625 L 22.171875 -10.859375 L 6.3125 -10.859375 C 6.375 -8.234375 7.046875 -6.234375 8.328125 -4.859375 C 9.609375 -3.492188 11.398438 -2.8125 13.703125 -2.8125 C 15.171875 -2.8125 16.472656 -2.945312 17.609375 -3.21875 C 18.753906 -3.488281 19.929688 -3.882812 21.140625 -4.40625 L 21.140625 -1.078125 C 19.960938 -0.554688 18.796875 -0.175781 17.640625 0.0625 C 16.484375 0.3125 15.113281 0.4375 13.53125 0.4375 C 11.3125 0.4375 9.363281 -0.0078125 7.6875 -0.90625 C 6.019531 -1.800781 4.71875 -3.125 3.78125 -4.875 C 2.84375 -6.632812 2.375 -8.8125 2.375 -11.40625 C 2.375 -13.945312 2.796875 -16.125 3.640625 -17.9375 C 4.492188 -19.757812 5.691406 -21.160156 7.234375 -22.140625 C 8.785156 -23.117188 10.582031 -23.609375 12.625 -23.609375 Z M 12.578125 -20.5 C 10.765625 -20.5 9.332031 -19.910156 8.28125 -18.734375 C 7.226562 -17.566406 6.601562 -15.945312 6.40625 -13.875 L 18.203125 -13.875 C 18.171875 -15.832031 17.707031 -17.425781 16.8125 -18.65625 C 15.925781 -19.882812 14.515625 -20.5 12.578125 -20.5 Z M 12.578125 -20.5 "/></g></g></g><g fill="#a6a6a6" fill-opacity="1"><g transform="translate(209.383676, 53.34918)"><g><path d="M 7.484375 0 L 3.671875 0 L 3.671875 -32.859375 L 7.484375 -32.859375 Z M 7.484375 0 "/></g></g></g><g fill="#a6a6a6" fill-opacity="1"><g transform="translate(219.885811, 53.34918)"><g/></g></g><g fill="#a6a6a6" fill-opacity="1"><g transform="translate(234.104871, 53.34918)"><g><path d="M 12.703125 -30.875 C 16.546875 -30.875 19.378906 -30.144531 21.203125 -28.6875 C 23.035156 -27.226562 23.953125 -25.03125 23.953125 -22.09375 C 23.953125 -20.445312 23.648438 -19.078125 23.046875 -17.984375 C 22.441406 -16.890625 21.671875 -16.007812 20.734375 -15.34375 C 19.796875 -14.6875 18.804688 -14.179688 17.765625 -13.828125 L 26.25 0 L 21.703125 0 L 14.21875 -12.75 L 8.078125 -12.75 L 8.078125 0 L 4.1875 0 L 4.1875 -30.875 Z M 12.5 -27.5 L 8.078125 -27.5 L 8.078125 -16.046875 L 12.703125 -16.046875 C 15.210938 -16.046875 17.046875 -16.539062 18.203125 -17.53125 C 19.359375 -18.519531 19.9375 -19.984375 19.9375 -21.921875 C 19.9375 -23.941406 19.328125 -25.375 18.109375 -26.21875 C 16.898438 -27.070312 15.03125 -27.5 12.5 -27.5 Z M 12.5 -27.5 "/></g></g></g><g fill="#a6a6a6" fill-opacity="1"><g transform="translate(260.339092, 53.34918)"><g><path d="M 5.625 -31.859375 C 6.195312 -31.859375 6.707031 -31.664062 7.15625 -31.28125 C 7.601562 -30.894531 7.828125 -30.28125 7.828125 -29.4375 C 7.828125 -28.601562 7.601562 -27.988281 7.15625 -27.59375 C 6.707031 -27.207031 6.195312 -27.015625 5.625 -27.015625 C 4.988281 -27.015625 4.453125 -27.207031 4.015625 -27.59375 C 3.585938 -27.988281 3.375 -28.601562 3.375 -29.4375 C 3.375 -30.28125 3.585938 -30.894531 4.015625 -31.28125 C 4.453125 -31.664062 4.988281 -31.859375 5.625 -31.859375 Z M 7.484375 -23.171875 L 7.484375 0 L 3.671875 0 L 3.671875 -23.171875 Z M 7.484375 -23.171875 "/></g></g></g><g fill="#a6a6a6" fill-opacity="1"><g transform="translate(270.841225, 53.34918)"><g><path d="M 7.484375 -32.859375 L 7.484375 -24.859375 C 7.484375 -23.878906 7.457031 -22.960938 7.40625 -22.109375 C 7.363281 -21.265625 7.316406 -20.597656 7.265625 -20.109375 L 7.484375 -20.109375 C 8.140625 -21.085938 9.046875 -21.90625 10.203125 -22.5625 C 11.359375 -23.226562 12.84375 -23.5625 14.65625 -23.5625 C 17.539062 -23.5625 19.851562 -22.554688 21.59375 -20.546875 C 23.34375 -18.546875 24.21875 -15.5625 24.21875 -11.59375 C 24.21875 -7.613281 23.335938 -4.613281 21.578125 -2.59375 C 19.816406 -0.570312 17.507812 0.4375 14.65625 0.4375 C 12.84375 0.4375 11.359375 0.101562 10.203125 -0.5625 C 9.046875 -1.226562 8.140625 -2.019531 7.484375 -2.9375 L 7.171875 -2.9375 L 6.40625 0 L 3.671875 0 L 3.671875 -32.859375 Z M 14.015625 -20.40625 C 11.535156 -20.40625 9.828125 -19.695312 8.890625 -18.28125 C 7.953125 -16.875 7.484375 -14.6875 7.484375 -11.71875 L 7.484375 -11.546875 C 7.484375 -8.691406 7.953125 -6.503906 8.890625 -4.984375 C 9.828125 -3.472656 11.5625 -2.71875 14.09375 -2.71875 C 16.164062 -2.71875 17.710938 -3.484375 18.734375 -5.015625 C 19.765625 -6.546875 20.28125 -8.75 20.28125 -11.625 C 20.28125 -17.476562 18.191406 -20.40625 14.015625 -20.40625 Z M 14.015625 -20.40625 "/></g></g></g><g fill="#a6a6a6" fill-opacity="1"><g transform="translate(296.77291, 53.34918)"><g><path d="M 12.625 -23.609375 C 14.582031 -23.609375 16.28125 -23.175781 17.71875 -22.3125 C 19.164062 -21.445312 20.269531 -20.226562 21.03125 -18.65625 C 21.789062 -17.082031 22.171875 -15.242188 22.171875 -13.140625 L 22.171875 -10.859375 L 6.3125 -10.859375 C 6.375 -8.234375 7.046875 -6.234375 8.328125 -4.859375 C 9.609375 -3.492188 11.398438 -2.8125 13.703125 -2.8125 C 15.171875 -2.8125 16.472656 -2.945312 17.609375 -3.21875 C 18.753906 -3.488281 19.929688 -3.882812 21.140625 -4.40625 L 21.140625 -1.078125 C 19.960938 -0.554688 18.796875 -0.175781 17.640625 0.0625 C 16.484375 0.3125 15.113281 0.4375 13.53125 0.4375 C 11.3125 0.4375 9.363281 -0.0078125 7.6875 -0.90625 C 6.019531 -1.800781 4.71875 -3.125 3.78125 -4.875 C 2.84375 -6.632812 2.375 -8.8125 2.375 -11.40625 C 2.375 -13.945312 2.796875 -16.125 3.640625 -17.9375 C 4.492188 -19.757812 5.691406 -21.160156 7.234375 -22.140625 C 8.785156 -23.117188 10.582031 -23.609375 12.625 -23.609375 Z M 12.578125 -20.5 C 10.765625 -20.5 9.332031 -19.910156 8.28125 -18.734375 C 7.226562 -17.566406 6.601562 -15.945312 6.40625 -13.875 L 18.203125 -13.875 C 18.171875 -15.832031 17.707031 -17.425781 16.8125 -18.65625 C 15.925781 -19.882812 14.515625 -20.5 12.578125 -20.5 Z M 12.578125 -20.5 "/></g></g></g><g fill="#a6a6a6" fill-opacity="1"><g transform="translate(320.500375, 53.34918)"><g><path d="M 5.625 -31.859375 C 6.195312 -31.859375 6.707031 -31.664062 7.15625 -31.28125 C 7.601562 -30.894531 7.828125 -30.28125 7.828125 -29.4375 C 7.828125 -28.601562 7.601562 -27.988281 7.15625 -27.59375 C 6.707031 -27.207031 6.195312 -27.015625 5.625 -27.015625 C 4.988281 -27.015625 4.453125 -27.207031 4.015625 -27.59375 C 3.585938 -27.988281 3.375 -28.601562 3.375 -29.4375 C 3.375 -30.28125 3.585938 -30.894531 4.015625 -31.28125 C 4.453125 -31.664062 4.988281 -31.859375 5.625 -31.859375 Z M 7.484375 -23.171875 L 7.484375 0 L 3.671875 0 L 3.671875 -23.171875 Z M 7.484375 -23.171875 "/></g></g></g><g fill="#a6a6a6" fill-opacity="1"><g transform="translate(331.002508, 53.34918)"><g><path d="M 14.484375 -23.609375 C 14.910156 -23.609375 15.367188 -23.582031 15.859375 -23.53125 C 16.359375 -23.488281 16.804688 -23.425781 17.203125 -23.34375 L 16.734375 -19.84375 C 16.359375 -19.925781 15.9375 -19.992188 15.46875 -20.046875 C 15.007812 -20.109375 14.59375 -20.140625 14.21875 -20.140625 C 13.039062 -20.140625 11.929688 -19.816406 10.890625 -19.171875 C 9.859375 -18.523438 9.03125 -17.617188 8.40625 -16.453125 C 7.789062 -15.285156 7.484375 -13.921875 7.484375 -12.359375 L 7.484375 0 L 3.671875 0 L 3.671875 -23.171875 L 6.78125 -23.171875 L 7.21875 -18.9375 L 7.390625 -18.9375 C 8.109375 -20.207031 9.066406 -21.300781 10.265625 -22.21875 C 11.460938 -23.144531 12.867188 -23.609375 14.484375 -23.609375 Z M 14.484375 -23.609375 "/></g></g></g><g fill="#a6a6a6" fill-opacity="1"><g transform="translate(348.203738, 53.34918)"><g><path d="M 23.828125 -11.625 C 23.828125 -7.789062 22.851562 -4.820312 20.90625 -2.71875 C 18.957031 -0.613281 16.328125 0.4375 13.015625 0.4375 C 10.960938 0.4375 9.132812 -0.03125 7.53125 -0.96875 C 5.9375 -1.90625 4.675781 -3.273438 3.75 -5.078125 C 2.832031 -6.878906 2.375 -9.0625 2.375 -11.625 C 2.375 -15.457031 3.332031 -18.410156 5.25 -20.484375 C 7.164062 -22.566406 9.796875 -23.609375 13.140625 -23.609375 C 15.210938 -23.609375 17.054688 -23.140625 18.671875 -22.203125 C 20.285156 -21.265625 21.546875 -19.910156 22.453125 -18.140625 C 23.367188 -16.367188 23.828125 -14.195312 23.828125 -11.625 Z M 6.3125 -11.625 C 6.3125 -8.882812 6.851562 -6.710938 7.9375 -5.109375 C 9.019531 -3.515625 10.738281 -2.71875 13.09375 -2.71875 C 15.4375 -2.71875 17.15625 -3.515625 18.25 -5.109375 C 19.34375 -6.710938 19.890625 -8.882812 19.890625 -11.625 C 19.890625 -14.363281 19.34375 -16.507812 18.25 -18.0625 C 17.15625 -19.625 15.425781 -20.40625 13.0625 -20.40625 C 10.695312 -20.40625 8.976562 -19.625 7.90625 -18.0625 C 6.84375 -16.507812 6.3125 -14.363281 6.3125 -11.625 Z M 6.3125 -11.625 "/></g></g></g><g fill="#a6a6a6" fill-opacity="1"><g transform="translate(134.880859, 73.399803)"><g><path d="M 14.25 -11.09375 L 11.296875 0 L 9.890625 0 L 7.734375 -7.28125 C 7.640625 -7.570312 7.550781 -7.867188 7.46875 -8.171875 C 7.394531 -8.472656 7.328125 -8.738281 7.265625 -8.96875 C 7.210938 -9.207031 7.179688 -9.375 7.171875 -9.46875 C 7.160156 -9.332031 7.101562 -9.039062 7 -8.59375 C 6.894531 -8.15625 6.773438 -7.703125 6.640625 -7.234375 L 4.546875 0 L 3.125 0 L 0.1875 -11.09375 L 1.640625 -11.09375 L 3.375 -4.328125 C 3.5 -3.847656 3.601562 -3.382812 3.6875 -2.9375 C 3.78125 -2.488281 3.851562 -2.066406 3.90625 -1.671875 C 3.957031 -2.078125 4.035156 -2.519531 4.140625 -3 C 4.242188 -3.476562 4.363281 -3.945312 4.5 -4.40625 L 6.453125 -11.09375 L 7.890625 -11.09375 L 9.9375 -4.359375 C 10.082031 -3.878906 10.207031 -3.398438 10.3125 -2.921875 C 10.414062 -2.441406 10.492188 -2.023438 10.546875 -1.671875 C 10.585938 -2.054688 10.65625 -2.472656 10.75 -2.921875 C 10.84375 -3.378906 10.953125 -3.851562 11.078125 -4.34375 L 12.796875 -11.09375 Z M 14.25 -11.09375 "/></g></g></g><g fill="#a6a6a6" fill-opacity="1"><g transform="translate(154.641187, 73.399803)"><g><path d="M 7.71875 0 L 1.515625 0 L 1.515625 -11.09375 L 7.71875 -11.09375 L 7.71875 -9.875 L 2.90625 -9.875 L 2.90625 -6.40625 L 7.4375 -6.40625 L 7.4375 -5.1875 L 2.90625 -5.1875 L 2.90625 -1.234375 L 7.71875 -1.234375 Z M 7.71875 0 "/></g></g></g><g fill="#a6a6a6" fill-opacity="1"><g transform="translate(168.592994, 73.399803)"><g><path d="M 1.515625 -11.09375 L 4.671875 -11.09375 C 6.054688 -11.09375 7.101562 -10.882812 7.8125 -10.46875 C 8.53125 -10.0625 8.890625 -9.351562 8.890625 -8.34375 C 8.890625 -7.695312 8.707031 -7.15625 8.34375 -6.71875 C 7.976562 -6.289062 7.457031 -6.015625 6.78125 -5.890625 L 6.78125 -5.8125 C 7.25 -5.726562 7.671875 -5.585938 8.046875 -5.390625 C 8.421875 -5.191406 8.71875 -4.910156 8.9375 -4.546875 C 9.15625 -4.191406 9.265625 -3.726562 9.265625 -3.15625 C 9.265625 -2.144531 8.921875 -1.363281 8.234375 -0.8125 C 7.546875 -0.269531 6.601562 0 5.40625 0 L 1.515625 0 Z M 2.90625 -6.375 L 4.953125 -6.375 C 5.898438 -6.375 6.550781 -6.523438 6.90625 -6.828125 C 7.269531 -7.140625 7.453125 -7.59375 7.453125 -8.1875 C 7.453125 -8.800781 7.234375 -9.238281 6.796875 -9.5 C 6.367188 -9.769531 5.679688 -9.90625 4.734375 -9.90625 L 2.90625 -9.90625 Z M 2.90625 -5.203125 L 2.90625 -1.1875 L 5.140625 -1.1875 C 6.128906 -1.1875 6.8125 -1.375 7.1875 -1.75 C 7.570312 -2.132812 7.765625 -2.640625 7.765625 -3.265625 C 7.765625 -3.847656 7.566406 -4.316406 7.171875 -4.671875 C 6.773438 -5.023438 6.0625 -5.203125 5.03125 -5.203125 Z M 2.90625 -5.203125 "/></g></g></g><g fill="#a6a6a6" fill-opacity="1"><g transform="translate(184.004691, 73.399803)"><g/></g></g><g fill="#a6a6a6" fill-opacity="1"><g transform="translate(193.359365, 73.399803)"><g><path d="M 10.40625 -5.65625 C 10.40625 -3.78125 9.894531 -2.367188 8.875 -1.421875 C 7.851562 -0.472656 6.429688 0 4.609375 0 L 1.515625 0 L 1.515625 -11.09375 L 4.921875 -11.09375 C 6.035156 -11.09375 7.003906 -10.882812 7.828125 -10.46875 C 8.648438 -10.0625 9.285156 -9.453125 9.734375 -8.640625 C 10.179688 -7.835938 10.40625 -6.84375 10.40625 -5.65625 Z M 8.921875 -5.609375 C 8.921875 -7.085938 8.554688 -8.171875 7.828125 -8.859375 C 7.097656 -9.554688 6.0625 -9.90625 4.71875 -9.90625 L 2.90625 -9.90625 L 2.90625 -1.203125 L 4.421875 -1.203125 C 7.421875 -1.203125 8.921875 -2.671875 8.921875 -5.609375 Z M 8.921875 -5.609375 "/></g></g></g><g fill="#a6a6a6" fill-opacity="1"><g transform="translate(210.013538, 73.399803)"><g><path d="M 7.71875 0 L 1.515625 0 L 1.515625 -11.09375 L 7.71875 -11.09375 L 7.71875 -9.875 L 2.90625 -9.875 L 2.90625 -6.40625 L 7.4375 -6.40625 L 7.4375 -5.1875 L 2.90625 -5.1875 L 2.90625 -1.234375 L 7.71875 -1.234375 Z M 7.71875 0 "/></g></g></g><g fill="#a6a6a6" fill-opacity="1"><g transform="translate(223.965346, 73.399803)"><g><path d="M 9.328125 -11.09375 L 5.359375 0 L 3.96875 0 L 0 -11.09375 L 1.46875 -11.09375 L 3.96875 -3.984375 C 4.132812 -3.523438 4.269531 -3.09375 4.375 -2.6875 C 4.488281 -2.289062 4.582031 -1.910156 4.65625 -1.546875 C 4.726562 -1.910156 4.820312 -2.296875 4.9375 -2.703125 C 5.050781 -3.109375 5.191406 -3.546875 5.359375 -4.015625 L 7.84375 -11.09375 Z M 9.328125 -11.09375 "/></g></g></g><g fill="#a6a6a6" fill-opacity="1"><g transform="translate(238.600499, 73.399803)"><g><path d="M 7.71875 0 L 1.515625 0 L 1.515625 -11.09375 L 7.71875 -11.09375 L 7.71875 -9.875 L 2.90625 -9.875 L 2.90625 -6.40625 L 7.4375 -6.40625 L 7.4375 -5.1875 L 2.90625 -5.1875 L 2.90625 -1.234375 L 7.71875 -1.234375 Z M 7.71875 0 "/></g></g></g><g fill="#a6a6a6" fill-opacity="1"><g transform="translate(252.552307, 73.399803)"><g><path d="M 1.515625 0 L 1.515625 -11.09375 L 2.90625 -11.09375 L 2.90625 -1.25 L 7.765625 -1.25 L 7.765625 0 Z M 1.515625 0 "/></g></g></g><g fill="#a6a6a6" fill-opacity="1"><g transform="translate(266.007127, 73.399803)"><g><path d="M 11.1875 -5.5625 C 11.1875 -4.414062 10.992188 -3.414062 10.609375 -2.5625 C 10.222656 -1.707031 9.648438 -1.039062 8.890625 -0.5625 C 8.128906 -0.0820312 7.191406 0.15625 6.078125 0.15625 C 4.929688 0.15625 3.972656 -0.0820312 3.203125 -0.5625 C 2.441406 -1.039062 1.875 -1.707031 1.5 -2.5625 C 1.132812 -3.425781 0.953125 -4.429688 0.953125 -5.578125 C 0.953125 -6.710938 1.132812 -7.707031 1.5 -8.5625 C 1.875 -9.414062 2.441406 -10.078125 3.203125 -10.546875 C 3.972656 -11.023438 4.9375 -11.265625 6.09375 -11.265625 C 7.207031 -11.265625 8.140625 -11.03125 8.890625 -10.5625 C 9.648438 -10.09375 10.222656 -9.429688 10.609375 -8.578125 C 10.992188 -7.722656 11.1875 -6.71875 11.1875 -5.5625 Z M 2.421875 -5.5625 C 2.421875 -4.164062 2.71875 -3.066406 3.3125 -2.265625 C 3.90625 -1.460938 4.828125 -1.0625 6.078125 -1.0625 C 7.328125 -1.0625 8.242188 -1.460938 8.828125 -2.265625 C 9.421875 -3.066406 9.71875 -4.164062 9.71875 -5.5625 C 9.71875 -6.96875 9.425781 -8.066406 8.84375 -8.859375 C 8.257812 -9.648438 7.34375 -10.046875 6.09375 -10.046875 C 4.832031 -10.046875 3.90625 -9.648438 3.3125 -8.859375 C 2.71875 -8.066406 2.421875 -6.96875 2.421875 -5.5625 Z M 2.421875 -5.5625 "/></g></g></g><g fill="#a6a6a6" fill-opacity="1"><g transform="translate(283.453362, 73.399803)"><g><path d="M 4.453125 -11.09375 C 5.898438 -11.09375 6.953125 -10.804688 7.609375 -10.234375 C 8.273438 -9.671875 8.609375 -8.867188 8.609375 -7.828125 C 8.609375 -7.222656 8.46875 -6.648438 8.1875 -6.109375 C 7.914062 -5.578125 7.457031 -5.144531 6.8125 -4.8125 C 6.164062 -4.488281 5.289062 -4.328125 4.1875 -4.328125 L 2.90625 -4.328125 L 2.90625 0 L 1.515625 0 L 1.515625 -11.09375 Z M 4.328125 -9.90625 L 2.90625 -9.90625 L 2.90625 -5.515625 L 4.03125 -5.515625 C 5.082031 -5.515625 5.867188 -5.6875 6.390625 -6.03125 C 6.910156 -6.375 7.171875 -6.953125 7.171875 -7.765625 C 7.171875 -8.484375 6.9375 -9.019531 6.46875 -9.375 C 6.007812 -9.726562 5.296875 -9.90625 4.328125 -9.90625 Z M 4.328125 -9.90625 "/></g></g></g><g fill="#a6a6a6" fill-opacity="1"><g transform="translate(298.166169, 73.399803)"><g><path d="M 7.71875 0 L 1.515625 0 L 1.515625 -11.09375 L 7.71875 -11.09375 L 7.71875 -9.875 L 2.90625 -9.875 L 2.90625 -6.40625 L 7.4375 -6.40625 L 7.4375 -5.1875 L 2.90625 -5.1875 L 2.90625 -1.234375 L 7.71875 -1.234375 Z M 7.71875 0 "/></g></g></g><g fill="#a6a6a6" fill-opacity="1"><g transform="translate(312.117968, 73.399803)"><g><path d="M 4.578125 -11.09375 C 5.953125 -11.09375 6.96875 -10.832031 7.625 -10.3125 C 8.28125 -9.789062 8.609375 -9 8.609375 -7.9375 C 8.609375 -7.351562 8.5 -6.863281 8.28125 -6.46875 C 8.0625 -6.070312 7.785156 -5.753906 7.453125 -5.515625 C 7.117188 -5.273438 6.765625 -5.09375 6.390625 -4.96875 L 9.4375 0 L 7.796875 0 L 5.109375 -4.59375 L 2.90625 -4.59375 L 2.90625 0 L 1.515625 0 L 1.515625 -11.09375 Z M 4.5 -9.890625 L 2.90625 -9.890625 L 2.90625 -5.765625 L 4.578125 -5.765625 C 5.472656 -5.765625 6.128906 -5.941406 6.546875 -6.296875 C 6.960938 -6.660156 7.171875 -7.1875 7.171875 -7.875 C 7.171875 -8.601562 6.953125 -9.117188 6.515625 -9.421875 C 6.078125 -9.734375 5.40625 -9.890625 4.5 -9.890625 Z M 4.5 -9.890625 "/></g></g></g><g fill="#a6a6a6" fill-opacity="1"><g transform="translate(32.772413, 104.466561)"><g><path d="M 56.789062 -48.441406 L 22.714844 -82.511719 L 11.496094 -71.292969 L 34.484375 -48.578125 L 10.945312 -25.042969 L 22.167969 -13.820312 Z M 56.789062 -48.441406 "/></g></g></g><g fill="#a6a6a6" fill-opacity="1"><g transform="translate(58.54875, -10.971191)"><g><path d="M -56.789062 48.441406 L -22.714844 82.511719 L -11.496094 71.292969 L -34.484375 48.578125 L -10.945312 25.042969 L -22.167969 13.820312 Z M -56.789062 48.441406 "/></g></g></g></svg>