<svg xmlns="http://www.w3.org/2000/svg" xmlns:xlink="http://www.w3.org/1999/xlink" width="500" zoomAndPan="magnify" viewBox="0 0 375 149.999998" height="200" preserveAspectRatio="xMidYMid meet" version="1.0"><defs><g/></defs><g fill="#a6a6a6" fill-opacity="1"><g transform="translate(168.693288, 74.751393)"><g><path d="M 8.765625 -21.296875 C 11.410156 -21.296875 13.363281 -20.789062 14.625 -19.78125 C 15.894531 -18.78125 16.53125 -17.265625 16.53125 -15.234375 C 16.53125 -14.109375 16.316406 -13.164062 15.890625 -12.40625 C 15.472656 -11.65625 14.941406 -11.050781 14.296875 -10.59375 C 13.648438 -10.132812 12.972656 -9.785156 12.265625 -9.546875 L 18.109375 0 L 14.96875 0 L 9.8125 -8.796875 L 5.578125 -8.796875 L 5.578125 0 L 2.890625 0 L 2.890625 -21.296875 Z M 8.625 -18.96875 L 5.578125 -18.96875 L 5.578125 -11.0625 L 8.765625 -11.0625 C 10.492188 -11.0625 11.753906 -11.40625 12.546875 -12.09375 C 13.347656 -12.78125 13.75 -13.789062 13.75 -15.125 C 13.75 -16.507812 13.332031 -17.492188 12.5 -18.078125 C 11.664062 -18.671875 10.375 -18.96875 8.625 -18.96875 Z M 8.625 -18.96875 "/></g></g></g><g fill="#a6a6a6" fill-opacity="1"><g transform="translate(186.791851, 74.751393)"><g><path d="M 8.59375 -16.25 C 10.539062 -16.25 11.976562 -15.820312 12.90625 -14.96875 C 13.84375 -14.113281 14.3125 -12.753906 14.3125 -10.890625 L 14.3125 0 L 12.40625 0 L 11.90625 -2.265625 L 11.78125 -2.265625 C 11.082031 -1.390625 10.34375 -0.742188 9.5625 -0.328125 C 8.789062 0.0859375 7.738281 0.296875 6.40625 0.296875 C 4.957031 0.296875 3.753906 -0.0820312 2.796875 -0.84375 C 1.847656 -1.613281 1.375 -2.8125 1.375 -4.4375 C 1.375 -6.03125 2 -7.257812 3.25 -8.125 C 4.5 -8.988281 6.425781 -9.460938 9.03125 -9.546875 L 11.75 -9.640625 L 11.75 -10.59375 C 11.75 -11.925781 11.457031 -12.847656 10.875 -13.359375 C 10.300781 -13.878906 9.488281 -14.140625 8.4375 -14.140625 C 7.601562 -14.140625 6.804688 -14.015625 6.046875 -13.765625 C 5.296875 -13.515625 4.59375 -13.234375 3.9375 -12.921875 L 3.125 -14.890625 C 3.820312 -15.265625 4.648438 -15.582031 5.609375 -15.84375 C 6.566406 -16.113281 7.5625 -16.25 8.59375 -16.25 Z M 11.71875 -7.8125 L 9.359375 -7.71875 C 7.378906 -7.644531 6.003906 -7.328125 5.234375 -6.765625 C 4.472656 -6.210938 4.09375 -5.429688 4.09375 -4.421875 C 4.09375 -3.523438 4.363281 -2.863281 4.90625 -2.4375 C 5.457031 -2.019531 6.160156 -1.8125 7.015625 -1.8125 C 8.347656 -1.8125 9.460938 -2.1875 10.359375 -2.9375 C 11.265625 -3.6875 11.71875 -4.835938 11.71875 -6.390625 Z M 11.71875 -7.8125 "/></g></g></g><g fill="#a6a6a6" fill-opacity="1"><g transform="translate(203.071595, 74.751393)"><g><path d="M 9.90625 -13.953125 L 5.875 -13.953125 L 5.875 0 L 3.25 0 L 3.25 -13.953125 L 0.453125 -13.953125 L 0.453125 -15.1875 L 3.25 -16.078125 L 3.25 -17 C 3.25 -19.070312 3.703125 -20.554688 4.609375 -21.453125 C 5.515625 -22.359375 6.789062 -22.8125 8.4375 -22.8125 C 9.050781 -22.8125 9.628906 -22.753906 10.171875 -22.640625 C 10.710938 -22.535156 11.171875 -22.414062 11.546875 -22.28125 L 10.859375 -20.21875 C 10.535156 -20.320312 10.164062 -20.421875 9.75 -20.515625 C 9.332031 -20.617188 8.90625 -20.671875 8.46875 -20.671875 C 7.59375 -20.671875 6.941406 -20.375 6.515625 -19.78125 C 6.085938 -19.195312 5.875 -18.28125 5.875 -17.03125 L 5.875 -15.984375 L 9.90625 -15.984375 Z M 9.90625 -13.953125 "/></g></g></g><g fill="#a6a6a6" fill-opacity="1"><g transform="translate(212.8811, 74.751393)"><g><path d="M 8.59375 -16.25 C 10.539062 -16.25 11.976562 -15.820312 12.90625 -14.96875 C 13.84375 -14.113281 14.3125 -12.753906 14.3125 -10.890625 L 14.3125 0 L 12.40625 0 L 11.90625 -2.265625 L 11.78125 -2.265625 C 11.082031 -1.390625 10.34375 -0.742188 9.5625 -0.328125 C 8.789062 0.0859375 7.738281 0.296875 6.40625 0.296875 C 4.957031 0.296875 3.753906 -0.0820312 2.796875 -0.84375 C 1.847656 -1.613281 1.375 -2.8125 1.375 -4.4375 C 1.375 -6.03125 2 -7.257812 3.25 -8.125 C 4.5 -8.988281 6.425781 -9.460938 9.03125 -9.546875 L 11.75 -9.640625 L 11.75 -10.59375 C 11.75 -11.925781 11.457031 -12.847656 10.875 -13.359375 C 10.300781 -13.878906 9.488281 -14.140625 8.4375 -14.140625 C 7.601562 -14.140625 6.804688 -14.015625 6.046875 -13.765625 C 5.296875 -13.515625 4.59375 -13.234375 3.9375 -12.921875 L 3.125 -14.890625 C 3.820312 -15.265625 4.648438 -15.582031 5.609375 -15.84375 C 6.566406 -16.113281 7.5625 -16.25 8.59375 -16.25 Z M 11.71875 -7.8125 L 9.359375 -7.71875 C 7.378906 -7.644531 6.003906 -7.328125 5.234375 -6.765625 C 4.472656 -6.210938 4.09375 -5.429688 4.09375 -4.421875 C 4.09375 -3.523438 4.363281 -2.863281 4.90625 -2.4375 C 5.457031 -2.019531 6.160156 -1.8125 7.015625 -1.8125 C 8.347656 -1.8125 9.460938 -2.1875 10.359375 -2.9375 C 11.265625 -3.6875 11.71875 -4.835938 11.71875 -6.390625 Z M 11.71875 -7.8125 "/></g></g></g><g fill="#a6a6a6" fill-opacity="1"><g transform="translate(229.160842, 74.751393)"><g><path d="M 8.703125 -16.28125 C 10.054688 -16.28125 11.226562 -15.984375 12.21875 -15.390625 C 13.21875 -14.796875 13.976562 -13.957031 14.5 -12.875 C 15.03125 -11.789062 15.296875 -10.519531 15.296875 -9.0625 L 15.296875 -7.484375 L 4.359375 -7.484375 C 4.398438 -5.671875 4.859375 -4.289062 5.734375 -3.34375 C 6.617188 -2.40625 7.859375 -1.9375 9.453125 -1.9375 C 10.472656 -1.9375 11.375 -2.03125 12.15625 -2.21875 C 12.9375 -2.40625 13.742188 -2.679688 14.578125 -3.046875 L 14.578125 -0.75 C 13.765625 -0.382812 12.960938 -0.117188 12.171875 0.046875 C 11.378906 0.210938 10.4375 0.296875 9.34375 0.296875 C 7.8125 0.296875 6.46875 -0.0078125 5.3125 -0.625 C 4.15625 -1.238281 3.253906 -2.148438 2.609375 -3.359375 C 1.960938 -4.578125 1.640625 -6.082031 1.640625 -7.875 C 1.640625 -9.625 1.929688 -11.125 2.515625 -12.375 C 3.109375 -13.632812 3.9375 -14.597656 5 -15.265625 C 6.0625 -15.941406 7.296875 -16.28125 8.703125 -16.28125 Z M 8.6875 -14.140625 C 7.425781 -14.140625 6.429688 -13.734375 5.703125 -12.921875 C 4.984375 -12.117188 4.554688 -11.003906 4.421875 -9.578125 L 12.5625 -9.578125 C 12.539062 -10.929688 12.21875 -12.03125 11.59375 -12.875 C 10.976562 -13.71875 10.007812 -14.140625 8.6875 -14.140625 Z M 8.6875 -14.140625 "/></g></g></g><g fill="#a6a6a6" fill-opacity="1"><g transform="translate(245.530039, 74.751393)"><g><path d="M 5.15625 0 L 2.53125 0 L 2.53125 -22.671875 L 5.15625 -22.671875 Z M 5.15625 0 "/></g></g></g><g fill="#a6a6a6" fill-opacity="1"><g transform="translate(252.775294, 74.751393)"><g/></g></g><g fill="#a6a6a6" fill-opacity="1"><g transform="translate(262.584795, 74.751393)"><g><path d="M 8.765625 -21.296875 C 11.410156 -21.296875 13.363281 -20.789062 14.625 -19.78125 C 15.894531 -18.78125 16.53125 -17.265625 16.53125 -15.234375 C 16.53125 -14.109375 16.316406 -13.164062 15.890625 -12.40625 C 15.472656 -11.65625 14.941406 -11.050781 14.296875 -10.59375 C 13.648438 -10.132812 12.972656 -9.785156 12.265625 -9.546875 L 18.109375 0 L 14.96875 0 L 9.8125 -8.796875 L 5.578125 -8.796875 L 5.578125 0 L 2.890625 0 L 2.890625 -21.296875 Z M 8.625 -18.96875 L 5.578125 -18.96875 L 5.578125 -11.0625 L 8.765625 -11.0625 C 10.492188 -11.0625 11.753906 -11.40625 12.546875 -12.09375 C 13.347656 -12.78125 13.75 -13.789062 13.75 -15.125 C 13.75 -16.507812 13.332031 -17.492188 12.5 -18.078125 C 11.664062 -18.671875 10.375 -18.96875 8.625 -18.96875 Z M 8.625 -18.96875 "/></g></g></g><g fill="#a6a6a6" fill-opacity="1"><g transform="translate(280.683363, 74.751393)"><g><path d="M 3.875 -21.984375 C 4.269531 -21.984375 4.625 -21.847656 4.9375 -21.578125 C 5.25 -21.304688 5.40625 -20.882812 5.40625 -20.3125 C 5.40625 -19.738281 5.25 -19.316406 4.9375 -19.046875 C 4.625 -18.773438 4.269531 -18.640625 3.875 -18.640625 C 3.4375 -18.640625 3.066406 -18.773438 2.765625 -19.046875 C 2.472656 -19.316406 2.328125 -19.738281 2.328125 -20.3125 C 2.328125 -20.882812 2.472656 -21.304688 2.765625 -21.578125 C 3.066406 -21.847656 3.4375 -21.984375 3.875 -21.984375 Z M 5.15625 -15.984375 L 5.15625 0 L 2.53125 0 L 2.53125 -15.984375 Z M 5.15625 -15.984375 "/></g></g></g><g fill="#a6a6a6" fill-opacity="1"><g transform="translate(287.928616, 74.751393)"><g><path d="M 5.15625 -22.671875 L 5.15625 -17.15625 C 5.15625 -16.476562 5.140625 -15.84375 5.109375 -15.25 C 5.085938 -14.664062 5.054688 -14.207031 5.015625 -13.875 L 5.15625 -13.875 C 5.613281 -14.550781 6.238281 -15.113281 7.03125 -15.5625 C 7.832031 -16.019531 8.859375 -16.25 10.109375 -16.25 C 12.097656 -16.25 13.691406 -15.554688 14.890625 -14.171875 C 16.097656 -12.796875 16.703125 -10.738281 16.703125 -8 C 16.703125 -5.25 16.09375 -3.175781 14.875 -1.78125 C 13.664062 -0.394531 12.078125 0.296875 10.109375 0.296875 C 8.859375 0.296875 7.832031 0.0664062 7.03125 -0.390625 C 6.238281 -0.847656 5.613281 -1.394531 5.15625 -2.03125 L 4.953125 -2.03125 L 4.421875 0 L 2.53125 0 L 2.53125 -22.671875 Z M 9.671875 -14.078125 C 7.953125 -14.078125 6.769531 -13.585938 6.125 -12.609375 C 5.476562 -11.640625 5.15625 -10.128906 5.15625 -8.078125 L 5.15625 -7.96875 C 5.15625 -6 5.476562 -4.488281 6.125 -3.4375 C 6.769531 -2.394531 7.96875 -1.875 9.71875 -1.875 C 11.15625 -1.875 12.222656 -2.398438 12.921875 -3.453125 C 13.628906 -4.515625 13.984375 -6.039062 13.984375 -8.03125 C 13.984375 -12.0625 12.546875 -14.078125 9.671875 -14.078125 Z M 9.671875 -14.078125 "/></g></g></g><g fill="#a6a6a6" fill-opacity="1"><g transform="translate(305.818469, 74.751393)"><g><path d="M 8.703125 -16.28125 C 10.054688 -16.28125 11.226562 -15.984375 12.21875 -15.390625 C 13.21875 -14.796875 13.976562 -13.957031 14.5 -12.875 C 15.03125 -11.789062 15.296875 -10.519531 15.296875 -9.0625 L 15.296875 -7.484375 L 4.359375 -7.484375 C 4.398438 -5.671875 4.859375 -4.289062 5.734375 -3.34375 C 6.617188 -2.40625 7.859375 -1.9375 9.453125 -1.9375 C 10.472656 -1.9375 11.375 -2.03125 12.15625 -2.21875 C 12.9375 -2.40625 13.742188 -2.679688 14.578125 -3.046875 L 14.578125 -0.75 C 13.765625 -0.382812 12.960938 -0.117188 12.171875 0.046875 C 11.378906 0.210938 10.4375 0.296875 9.34375 0.296875 C 7.8125 0.296875 6.46875 -0.0078125 5.3125 -0.625 C 4.15625 -1.238281 3.253906 -2.148438 2.609375 -3.359375 C 1.960938 -4.578125 1.640625 -6.082031 1.640625 -7.875 C 1.640625 -9.625 1.929688 -11.125 2.515625 -12.375 C 3.109375 -13.632812 3.9375 -14.597656 5 -15.265625 C 6.0625 -15.941406 7.296875 -16.28125 8.703125 -16.28125 Z M 8.6875 -14.140625 C 7.425781 -14.140625 6.429688 -13.734375 5.703125 -12.921875 C 4.984375 -12.117188 4.554688 -11.003906 4.421875 -9.578125 L 12.5625 -9.578125 C 12.539062 -10.929688 12.21875 -12.03125 11.59375 -12.875 C 10.976562 -13.71875 10.007812 -14.140625 8.6875 -14.140625 Z M 8.6875 -14.140625 "/></g></g></g><g fill="#a6a6a6" fill-opacity="1"><g transform="translate(322.187667, 74.751393)"><g><path d="M 3.875 -21.984375 C 4.269531 -21.984375 4.625 -21.847656 4.9375 -21.578125 C 5.25 -21.304688 5.40625 -20.882812 5.40625 -20.3125 C 5.40625 -19.738281 5.25 -19.316406 4.9375 -19.046875 C 4.625 -18.773438 4.269531 -18.640625 3.875 -18.640625 C 3.4375 -18.640625 3.066406 -18.773438 2.765625 -19.046875 C 2.472656 -19.316406 2.328125 -19.738281 2.328125 -20.3125 C 2.328125 -20.882812 2.472656 -21.304688 2.765625 -21.578125 C 3.066406 -21.847656 3.4375 -21.984375 3.875 -21.984375 Z M 5.15625 -15.984375 L 5.15625 0 L 2.53125 0 L 2.53125 -15.984375 Z M 5.15625 -15.984375 "/></g></g></g><g fill="#a6a6a6" fill-opacity="1"><g transform="translate(329.43292, 74.751393)"><g><path d="M 10 -16.28125 C 10.289062 -16.28125 10.601562 -16.265625 10.9375 -16.234375 C 11.28125 -16.210938 11.59375 -16.171875 11.875 -16.109375 L 11.546875 -13.6875 C 11.285156 -13.75 10.992188 -13.800781 10.671875 -13.84375 C 10.359375 -13.882812 10.070312 -13.90625 9.8125 -13.90625 C 9 -13.90625 8.234375 -13.679688 7.515625 -13.234375 C 6.796875 -12.785156 6.222656 -12.15625 5.796875 -11.34375 C 5.367188 -10.539062 5.15625 -9.601562 5.15625 -8.53125 L 5.15625 0 L 2.53125 0 L 2.53125 -15.984375 L 4.6875 -15.984375 L 4.984375 -13.0625 L 5.09375 -13.0625 C 5.59375 -13.9375 6.253906 -14.691406 7.078125 -15.328125 C 7.910156 -15.960938 8.882812 -16.28125 10 -16.28125 Z M 10 -16.28125 "/></g></g></g><g fill="#a6a6a6" fill-opacity="1"><g transform="translate(341.299773, 74.751393)"><g><path d="M 16.4375 -8.03125 C 16.4375 -5.382812 15.765625 -3.332031 14.421875 -1.875 C 13.078125 -0.425781 11.265625 0.296875 8.984375 0.296875 C 7.566406 0.296875 6.304688 -0.0234375 5.203125 -0.671875 C 4.097656 -1.316406 3.226562 -2.257812 2.59375 -3.5 C 1.957031 -4.75 1.640625 -6.257812 1.640625 -8.03125 C 1.640625 -10.664062 2.300781 -12.695312 3.625 -14.125 C 4.945312 -15.5625 6.757812 -16.28125 9.0625 -16.28125 C 10.5 -16.28125 11.773438 -15.957031 12.890625 -15.3125 C 14.003906 -14.664062 14.875 -13.726562 15.5 -12.5 C 16.125 -11.28125 16.4375 -9.789062 16.4375 -8.03125 Z M 4.359375 -8.03125 C 4.359375 -6.132812 4.726562 -4.632812 5.46875 -3.53125 C 6.21875 -2.425781 7.40625 -1.875 9.03125 -1.875 C 10.644531 -1.875 11.828125 -2.425781 12.578125 -3.53125 C 13.335938 -4.632812 13.71875 -6.132812 13.71875 -8.03125 C 13.71875 -9.914062 13.335938 -11.394531 12.578125 -12.46875 C 11.828125 -13.539062 10.640625 -14.078125 9.015625 -14.078125 C 7.378906 -14.078125 6.191406 -13.539062 5.453125 -12.46875 C 4.722656 -11.394531 4.359375 -9.914062 4.359375 -8.03125 Z M 4.359375 -8.03125 "/></g></g></g><g fill="#a6a6a6" fill-opacity="1"><g transform="translate(197.459283, 97.62731)"><g><path d="M 10.15625 -7.90625 L 8.046875 0 L 7.046875 0 L 5.5 -5.1875 C 5.4375 -5.394531 5.375 -5.601562 5.3125 -5.8125 C 5.257812 -6.03125 5.210938 -6.222656 5.171875 -6.390625 C 5.140625 -6.554688 5.117188 -6.675781 5.109375 -6.75 C 5.097656 -6.65625 5.054688 -6.445312 4.984375 -6.125 C 4.910156 -5.8125 4.828125 -5.488281 4.734375 -5.15625 L 3.234375 0 L 2.234375 0 L 0.140625 -7.90625 L 1.171875 -7.90625 L 2.40625 -3.078125 C 2.488281 -2.734375 2.5625 -2.40625 2.625 -2.09375 C 2.6875 -1.78125 2.738281 -1.484375 2.78125 -1.203125 C 2.820312 -1.484375 2.878906 -1.789062 2.953125 -2.125 C 3.023438 -2.46875 3.109375 -2.804688 3.203125 -3.140625 L 4.59375 -7.90625 L 5.625 -7.90625 L 7.078125 -3.109375 C 7.179688 -2.765625 7.269531 -2.421875 7.34375 -2.078125 C 7.414062 -1.742188 7.472656 -1.453125 7.515625 -1.203125 C 7.546875 -1.472656 7.59375 -1.765625 7.65625 -2.078125 C 7.726562 -2.398438 7.8125 -2.738281 7.90625 -3.09375 L 9.125 -7.90625 Z M 10.15625 -7.90625 "/></g></g></g><g fill="#a6a6a6" fill-opacity="1"><g transform="translate(211.535863, 97.62731)"><g><path d="M 5.5 0 L 1.078125 0 L 1.078125 -7.90625 L 5.5 -7.90625 L 5.5 -7.03125 L 2.078125 -7.03125 L 2.078125 -4.5625 L 5.296875 -4.5625 L 5.296875 -3.703125 L 2.078125 -3.703125 L 2.078125 -0.875 L 5.5 -0.875 Z M 5.5 0 "/></g></g></g><g fill="#a6a6a6" fill-opacity="1"><g transform="translate(221.474653, 97.62731)"><g><path d="M 1.078125 -7.90625 L 3.328125 -7.90625 C 4.316406 -7.90625 5.066406 -7.757812 5.578125 -7.46875 C 6.085938 -7.175781 6.34375 -6.671875 6.34375 -5.953125 C 6.34375 -5.484375 6.210938 -5.09375 5.953125 -4.78125 C 5.691406 -4.476562 5.316406 -4.285156 4.828125 -4.203125 L 4.828125 -4.140625 C 5.160156 -4.078125 5.460938 -3.976562 5.734375 -3.84375 C 6.003906 -3.707031 6.21875 -3.507812 6.375 -3.25 C 6.53125 -2.988281 6.609375 -2.65625 6.609375 -2.25 C 6.609375 -1.53125 6.359375 -0.972656 5.859375 -0.578125 C 5.367188 -0.191406 4.703125 0 3.859375 0 L 1.078125 0 Z M 2.078125 -4.546875 L 3.53125 -4.546875 C 4.207031 -4.546875 4.671875 -4.65625 4.921875 -4.875 C 5.179688 -5.09375 5.3125 -5.414062 5.3125 -5.84375 C 5.3125 -6.269531 5.15625 -6.578125 4.84375 -6.765625 C 4.539062 -6.960938 4.050781 -7.0625 3.375 -7.0625 L 2.078125 -7.0625 Z M 2.078125 -3.71875 L 2.078125 -0.84375 L 3.671875 -0.84375 C 4.367188 -0.84375 4.851562 -0.976562 5.125 -1.25 C 5.394531 -1.519531 5.53125 -1.878906 5.53125 -2.328125 C 5.53125 -2.742188 5.390625 -3.078125 5.109375 -3.328125 C 4.828125 -3.585938 4.320312 -3.71875 3.59375 -3.71875 Z M 2.078125 -3.71875 "/></g></g></g><g fill="#a6a6a6" fill-opacity="1"><g transform="translate(232.453417, 97.62731)"><g/></g></g><g fill="#a6a6a6" fill-opacity="1"><g transform="translate(239.117367, 97.62731)"><g><path d="M 7.40625 -4.03125 C 7.40625 -2.695312 7.039062 -1.691406 6.3125 -1.015625 C 5.59375 -0.335938 4.582031 0 3.28125 0 L 1.078125 0 L 1.078125 -7.90625 L 3.515625 -7.90625 C 4.304688 -7.90625 4.992188 -7.757812 5.578125 -7.46875 C 6.160156 -7.175781 6.609375 -6.738281 6.921875 -6.15625 C 7.242188 -5.582031 7.40625 -4.875 7.40625 -4.03125 Z M 6.359375 -4 C 6.359375 -5.050781 6.097656 -5.820312 5.578125 -6.3125 C 5.054688 -6.8125 4.320312 -7.0625 3.375 -7.0625 L 2.078125 -7.0625 L 2.078125 -0.859375 L 3.140625 -0.859375 C 5.285156 -0.859375 6.359375 -1.90625 6.359375 -4 Z M 6.359375 -4 "/></g></g></g><g fill="#a6a6a6" fill-opacity="1"><g transform="translate(250.981229, 97.62731)"><g><path d="M 5.5 0 L 1.078125 0 L 1.078125 -7.90625 L 5.5 -7.90625 L 5.5 -7.03125 L 2.078125 -7.03125 L 2.078125 -4.5625 L 5.296875 -4.5625 L 5.296875 -3.703125 L 2.078125 -3.703125 L 2.078125 -0.875 L 5.5 -0.875 Z M 5.5 0 "/></g></g></g><g fill="#a6a6a6" fill-opacity="1"><g transform="translate(260.920018, 97.62731)"><g><path d="M 6.640625 -7.90625 L 3.828125 0 L 2.828125 0 L 0 -7.90625 L 1.046875 -7.90625 L 2.828125 -2.84375 C 2.941406 -2.507812 3.035156 -2.203125 3.109375 -1.921875 C 3.191406 -1.640625 3.265625 -1.367188 3.328125 -1.109375 C 3.378906 -1.367188 3.441406 -1.640625 3.515625 -1.921875 C 3.597656 -2.210938 3.703125 -2.523438 3.828125 -2.859375 L 5.59375 -7.90625 Z M 6.640625 -7.90625 "/></g></g></g><g fill="#a6a6a6" fill-opacity="1"><g transform="translate(271.3456, 97.62731)"><g><path d="M 5.5 0 L 1.078125 0 L 1.078125 -7.90625 L 5.5 -7.90625 L 5.5 -7.03125 L 2.078125 -7.03125 L 2.078125 -4.5625 L 5.296875 -4.5625 L 5.296875 -3.703125 L 2.078125 -3.703125 L 2.078125 -0.875 L 5.5 -0.875 Z M 5.5 0 "/></g></g></g><g fill="#a6a6a6" fill-opacity="1"><g transform="translate(281.28439, 97.62731)"><g><path d="M 1.078125 0 L 1.078125 -7.90625 L 2.078125 -7.90625 L 2.078125 -0.890625 L 5.53125 -0.890625 L 5.53125 0 Z M 1.078125 0 "/></g></g></g><g fill="#a6a6a6" fill-opacity="1"><g transform="translate(290.869143, 97.62731)"><g><path d="M 7.96875 -3.96875 C 7.96875 -3.144531 7.828125 -2.425781 7.546875 -1.8125 C 7.273438 -1.207031 6.867188 -0.734375 6.328125 -0.390625 C 5.785156 -0.0546875 5.117188 0.109375 4.328125 0.109375 C 3.515625 0.109375 2.832031 -0.0546875 2.28125 -0.390625 C 1.738281 -0.734375 1.332031 -1.210938 1.0625 -1.828125 C 0.800781 -2.441406 0.671875 -3.160156 0.671875 -3.984375 C 0.671875 -4.785156 0.800781 -5.488281 1.0625 -6.09375 C 1.332031 -6.707031 1.738281 -7.179688 2.28125 -7.515625 C 2.832031 -7.859375 3.519531 -8.03125 4.34375 -8.03125 C 5.132812 -8.03125 5.796875 -7.863281 6.328125 -7.53125 C 6.867188 -7.195312 7.273438 -6.722656 7.546875 -6.109375 C 7.828125 -5.503906 7.96875 -4.789062 7.96875 -3.96875 Z M 1.734375 -3.96875 C 1.734375 -2.96875 1.941406 -2.179688 2.359375 -1.609375 C 2.773438 -1.035156 3.429688 -0.75 4.328125 -0.75 C 5.222656 -0.75 5.878906 -1.035156 6.296875 -1.609375 C 6.710938 -2.179688 6.921875 -2.96875 6.921875 -3.96875 C 6.921875 -4.96875 6.710938 -5.75 6.296875 -6.3125 C 5.890625 -6.875 5.238281 -7.15625 4.34375 -7.15625 C 3.4375 -7.15625 2.773438 -6.875 2.359375 -6.3125 C 1.941406 -5.75 1.734375 -4.96875 1.734375 -3.96875 Z M 1.734375 -3.96875 "/></g></g></g><g fill="#a6a6a6" fill-opacity="1"><g transform="translate(303.297242, 97.62731)"><g><path d="M 3.171875 -7.90625 C 4.203125 -7.90625 4.953125 -7.703125 5.421875 -7.296875 C 5.898438 -6.890625 6.140625 -6.316406 6.140625 -5.578125 C 6.140625 -5.148438 6.039062 -4.742188 5.84375 -4.359375 C 5.644531 -3.972656 5.316406 -3.660156 4.859375 -3.421875 C 4.398438 -3.191406 3.773438 -3.078125 2.984375 -3.078125 L 2.078125 -3.078125 L 2.078125 0 L 1.078125 0 L 1.078125 -7.90625 Z M 3.078125 -7.0625 L 2.078125 -7.0625 L 2.078125 -3.9375 L 2.875 -3.9375 C 3.625 -3.9375 4.179688 -4.054688 4.546875 -4.296875 C 4.921875 -4.535156 5.109375 -4.945312 5.109375 -5.53125 C 5.109375 -6.039062 4.941406 -6.421875 4.609375 -6.671875 C 4.285156 -6.929688 3.773438 -7.0625 3.078125 -7.0625 Z M 3.078125 -7.0625 "/></g></g></g><g fill="#a6a6a6" fill-opacity="1"><g transform="translate(313.778142, 97.62731)"><g><path d="M 5.5 0 L 1.078125 0 L 1.078125 -7.90625 L 5.5 -7.90625 L 5.5 -7.03125 L 2.078125 -7.03125 L 2.078125 -4.5625 L 5.296875 -4.5625 L 5.296875 -3.703125 L 2.078125 -3.703125 L 2.078125 -0.875 L 5.5 -0.875 Z M 5.5 0 "/></g></g></g><g fill="#a6a6a6" fill-opacity="1"><g transform="translate(323.716925, 97.62731)"><g><path d="M 3.25 -7.90625 C 4.238281 -7.90625 4.96875 -7.71875 5.4375 -7.34375 C 5.90625 -6.976562 6.140625 -6.414062 6.140625 -5.65625 C 6.140625 -5.238281 6.0625 -4.890625 5.90625 -4.609375 C 5.75 -4.328125 5.550781 -4.097656 5.3125 -3.921875 C 5.070312 -3.753906 4.816406 -3.628906 4.546875 -3.546875 L 6.71875 0 L 5.5625 0 L 3.640625 -3.265625 L 2.078125 -3.265625 L 2.078125 0 L 1.078125 0 L 1.078125 -7.90625 Z M 3.203125 -7.046875 L 2.078125 -7.046875 L 2.078125 -4.109375 L 3.25 -4.109375 C 3.894531 -4.109375 4.363281 -4.234375 4.65625 -4.484375 C 4.957031 -4.742188 5.109375 -5.117188 5.109375 -5.609375 C 5.109375 -6.128906 4.953125 -6.5 4.640625 -6.71875 C 4.328125 -6.9375 3.847656 -7.046875 3.203125 -7.046875 Z M 3.203125 -7.046875 "/></g></g></g><g fill="#a6a6a6" fill-opacity="1"><g transform="translate(61.87032, 171.470543)"><g><path d="M 94.917969 -80.96875 L 37.96875 -137.917969 L 19.210938 -119.164062 L 57.636719 -81.195312 L 18.296875 -41.855469 L 37.050781 -23.101562 Z M 94.917969 -80.96875 "/></g></g></g><g fill="#a6a6a6" fill-opacity="1"><g transform="translate(104.970597, -21.482118)"><g><path d="M -94.917969 80.96875 L -37.96875 137.917969 L -19.210938 119.164062 L -57.636719 81.195312 L -18.296875 41.855469 L -37.050781 23.101562 Z M -94.917969 80.96875 "/></g></g></g></svg>