<svg xmlns="http://www.w3.org/2000/svg" xmlns:xlink="http://www.w3.org/1999/xlink" width="500" zoomAndPan="magnify" viewBox="0 0 375 149.999998" height="200" preserveAspectRatio="xMidYMid meet" version="1.0"><defs><g/></defs><g fill="#a6a6a6" fill-opacity="1"><g transform="translate(103.392147, 81.427101)"><g><path d="M 12.375 -30.0625 C 16.113281 -30.0625 18.875 -29.351562 20.65625 -27.9375 C 22.4375 -26.519531 23.328125 -24.378906 23.328125 -21.515625 C 23.328125 -19.921875 23.03125 -18.585938 22.4375 -17.515625 C 21.851562 -16.453125 21.101562 -15.597656 20.1875 -14.953125 C 19.28125 -14.304688 18.320312 -13.8125 17.3125 -13.46875 L 25.5625 0 L 21.140625 0 L 13.859375 -12.421875 L 7.875 -12.421875 L 7.875 0 L 4.078125 0 L 4.078125 -30.0625 Z M 12.171875 -26.78125 L 7.875 -26.78125 L 7.875 -15.625 L 12.375 -15.625 C 14.820312 -15.625 16.601562 -16.109375 17.71875 -17.078125 C 18.84375 -18.046875 19.40625 -19.46875 19.40625 -21.34375 C 19.40625 -23.3125 18.816406 -24.707031 17.640625 -25.53125 C 16.460938 -26.363281 14.640625 -26.78125 12.171875 -26.78125 Z M 12.171875 -26.78125 "/></g></g></g><g fill="#a6a6a6" fill-opacity="1"><g transform="translate(128.943571, 81.427101)"><g><path d="M 12.125 -22.953125 C 14.875 -22.953125 16.910156 -22.347656 18.234375 -21.140625 C 19.554688 -19.929688 20.21875 -18.007812 20.21875 -15.375 L 20.21875 0 L 17.515625 0 L 16.796875 -3.203125 L 16.640625 -3.203125 C 15.648438 -1.960938 14.609375 -1.046875 13.515625 -0.453125 C 12.421875 0.128906 10.929688 0.421875 9.046875 0.421875 C 7.003906 0.421875 5.304688 -0.117188 3.953125 -1.203125 C 2.609375 -2.285156 1.9375 -3.976562 1.9375 -6.28125 C 1.9375 -8.519531 2.820312 -10.25 4.59375 -11.46875 C 6.363281 -12.695312 9.085938 -13.363281 12.765625 -13.46875 L 16.59375 -13.59375 L 16.59375 -14.953125 C 16.59375 -16.828125 16.1875 -18.128906 15.375 -18.859375 C 14.5625 -19.585938 13.410156 -19.953125 11.921875 -19.953125 C 10.734375 -19.953125 9.609375 -19.773438 8.546875 -19.421875 C 7.484375 -19.078125 6.488281 -18.679688 5.5625 -18.234375 L 4.421875 -21.015625 C 5.398438 -21.546875 6.5625 -22 7.90625 -22.375 C 9.257812 -22.757812 10.664062 -22.953125 12.125 -22.953125 Z M 16.546875 -11.03125 L 13.21875 -10.90625 C 10.414062 -10.789062 8.472656 -10.335938 7.390625 -9.546875 C 6.304688 -8.765625 5.765625 -7.660156 5.765625 -6.234375 C 5.765625 -4.972656 6.148438 -4.046875 6.921875 -3.453125 C 7.691406 -2.859375 8.679688 -2.5625 9.890625 -2.5625 C 11.773438 -2.5625 13.351562 -3.085938 14.625 -4.140625 C 15.90625 -5.203125 16.546875 -6.828125 16.546875 -9.015625 Z M 16.546875 -11.03125 "/></g></g></g><g fill="#a6a6a6" fill-opacity="1"><g transform="translate(151.927198, 81.427101)"><g><path d="M 13.984375 -19.703125 L 8.296875 -19.703125 L 8.296875 0 L 4.59375 0 L 4.59375 -19.703125 L 0.625 -19.703125 L 0.625 -21.4375 L 4.59375 -22.703125 L 4.59375 -24 C 4.59375 -26.914062 5.226562 -29.015625 6.5 -30.296875 C 7.78125 -31.578125 9.585938 -32.21875 11.921875 -32.21875 C 12.785156 -32.21875 13.597656 -32.140625 14.359375 -31.984375 C 15.117188 -31.828125 15.765625 -31.648438 16.296875 -31.453125 L 15.328125 -28.546875 C 14.878906 -28.691406 14.359375 -28.832031 13.765625 -28.96875 C 13.179688 -29.113281 12.578125 -29.1875 11.953125 -29.1875 C 10.722656 -29.1875 9.804688 -28.769531 9.203125 -27.9375 C 8.597656 -27.113281 8.296875 -25.816406 8.296875 -24.046875 L 8.296875 -22.578125 L 13.984375 -22.578125 Z M 13.984375 -19.703125 "/></g></g></g><g fill="#a6a6a6" fill-opacity="1"><g transform="translate(165.776186, 81.427101)"><g><path d="M 12.125 -22.953125 C 14.875 -22.953125 16.910156 -22.347656 18.234375 -21.140625 C 19.554688 -19.929688 20.21875 -18.007812 20.21875 -15.375 L 20.21875 0 L 17.515625 0 L 16.796875 -3.203125 L 16.640625 -3.203125 C 15.648438 -1.960938 14.609375 -1.046875 13.515625 -0.453125 C 12.421875 0.128906 10.929688 0.421875 9.046875 0.421875 C 7.003906 0.421875 5.304688 -0.117188 3.953125 -1.203125 C 2.609375 -2.285156 1.9375 -3.976562 1.9375 -6.28125 C 1.9375 -8.519531 2.820312 -10.25 4.59375 -11.46875 C 6.363281 -12.695312 9.085938 -13.363281 12.765625 -13.46875 L 16.59375 -13.59375 L 16.59375 -14.953125 C 16.59375 -16.828125 16.1875 -18.128906 15.375 -18.859375 C 14.5625 -19.585938 13.410156 -19.953125 11.921875 -19.953125 C 10.734375 -19.953125 9.609375 -19.773438 8.546875 -19.421875 C 7.484375 -19.078125 6.488281 -18.679688 5.5625 -18.234375 L 4.421875 -21.015625 C 5.398438 -21.546875 6.5625 -22 7.90625 -22.375 C 9.257812 -22.757812 10.664062 -22.953125 12.125 -22.953125 Z M 16.546875 -11.03125 L 13.21875 -10.90625 C 10.414062 -10.789062 8.472656 -10.335938 7.390625 -9.546875 C 6.304688 -8.765625 5.765625 -7.660156 5.765625 -6.234375 C 5.765625 -4.972656 6.148438 -4.046875 6.921875 -3.453125 C 7.691406 -2.859375 8.679688 -2.5625 9.890625 -2.5625 C 11.773438 -2.5625 13.351562 -3.085938 14.625 -4.140625 C 15.90625 -5.203125 16.546875 -6.828125 16.546875 -9.015625 Z M 16.546875 -11.03125 "/></g></g></g><g fill="#a6a6a6" fill-opacity="1"><g transform="translate(188.759811, 81.427101)"><g><path d="M 12.296875 -22.984375 C 14.203125 -22.984375 15.859375 -22.5625 17.265625 -21.71875 C 18.671875 -20.882812 19.742188 -19.703125 20.484375 -18.171875 C 21.234375 -16.640625 21.609375 -14.847656 21.609375 -12.796875 L 21.609375 -10.5625 L 6.140625 -10.5625 C 6.203125 -8.007812 6.859375 -6.066406 8.109375 -4.734375 C 9.359375 -3.398438 11.101562 -2.734375 13.34375 -2.734375 C 14.78125 -2.734375 16.050781 -2.863281 17.15625 -3.125 C 18.269531 -3.394531 19.414062 -3.785156 20.59375 -4.296875 L 20.59375 -1.046875 C 19.4375 -0.546875 18.296875 -0.175781 17.171875 0.0625 C 16.054688 0.300781 14.726562 0.421875 13.1875 0.421875 C 11.019531 0.421875 9.117188 -0.0078125 7.484375 -0.875 C 5.859375 -1.75 4.585938 -3.039062 3.671875 -4.75 C 2.765625 -6.46875 2.3125 -8.585938 2.3125 -11.109375 C 2.3125 -13.585938 2.722656 -15.707031 3.546875 -17.46875 C 4.378906 -19.238281 5.546875 -20.597656 7.046875 -21.546875 C 8.554688 -22.503906 10.304688 -22.984375 12.296875 -22.984375 Z M 12.25 -19.953125 C 10.476562 -19.953125 9.082031 -19.382812 8.0625 -18.25 C 7.039062 -17.113281 6.429688 -15.535156 6.234375 -13.515625 L 17.734375 -13.515625 C 17.703125 -15.421875 17.25 -16.96875 16.375 -18.15625 C 15.507812 -19.351562 14.132812 -19.953125 12.25 -19.953125 Z M 12.25 -19.953125 "/></g></g></g><g fill="#a6a6a6" fill-opacity="1"><g transform="translate(211.869728, 81.427101)"><g><path d="M 7.28125 0 L 3.578125 0 L 3.578125 -32 L 7.28125 -32 Z M 7.28125 0 "/></g></g></g><g fill="#a6a6a6" fill-opacity="1"><g transform="translate(222.098526, 81.427101)"><g/></g></g><g fill="#a6a6a6" fill-opacity="1"><g transform="translate(235.947511, 81.427101)"><g><path d="M 12.375 -30.0625 C 16.113281 -30.0625 18.875 -29.351562 20.65625 -27.9375 C 22.4375 -26.519531 23.328125 -24.378906 23.328125 -21.515625 C 23.328125 -19.921875 23.03125 -18.585938 22.4375 -17.515625 C 21.851562 -16.453125 21.101562 -15.597656 20.1875 -14.953125 C 19.28125 -14.304688 18.320312 -13.8125 17.3125 -13.46875 L 25.5625 0 L 21.140625 0 L 13.859375 -12.421875 L 7.875 -12.421875 L 7.875 0 L 4.078125 0 L 4.078125 -30.0625 Z M 12.171875 -26.78125 L 7.875 -26.78125 L 7.875 -15.625 L 12.375 -15.625 C 14.820312 -15.625 16.601562 -16.109375 17.71875 -17.078125 C 18.84375 -18.046875 19.40625 -19.46875 19.40625 -21.34375 C 19.40625 -23.3125 18.816406 -24.707031 17.640625 -25.53125 C 16.460938 -26.363281 14.640625 -26.78125 12.171875 -26.78125 Z M 12.171875 -26.78125 "/></g></g></g><g fill="#a6a6a6" fill-opacity="1"><g transform="translate(261.498941, 81.427101)"><g><path d="M 5.46875 -31.03125 C 6.03125 -31.03125 6.53125 -30.835938 6.96875 -30.453125 C 7.40625 -30.078125 7.625 -29.484375 7.625 -28.671875 C 7.625 -27.859375 7.40625 -27.257812 6.96875 -26.875 C 6.53125 -26.5 6.03125 -26.3125 5.46875 -26.3125 C 4.851562 -26.3125 4.332031 -26.5 3.90625 -26.875 C 3.488281 -27.257812 3.28125 -27.859375 3.28125 -28.671875 C 3.28125 -29.484375 3.488281 -30.078125 3.90625 -30.453125 C 4.332031 -30.835938 4.851562 -31.03125 5.46875 -31.03125 Z M 7.28125 -22.578125 L 7.28125 0 L 3.578125 0 L 3.578125 -22.578125 Z M 7.28125 -22.578125 "/></g></g></g><g fill="#a6a6a6" fill-opacity="1"><g transform="translate(271.727738, 81.427101)"><g><path d="M 7.28125 -32 L 7.28125 -24.21875 C 7.28125 -23.257812 7.257812 -22.363281 7.21875 -21.53125 C 7.175781 -20.707031 7.128906 -20.054688 7.078125 -19.578125 L 7.28125 -19.578125 C 7.925781 -20.535156 8.8125 -21.335938 9.9375 -21.984375 C 11.0625 -22.628906 12.507812 -22.953125 14.28125 -22.953125 C 17.082031 -22.953125 19.332031 -21.972656 21.03125 -20.015625 C 22.726562 -18.066406 23.578125 -15.15625 23.578125 -11.28125 C 23.578125 -7.40625 22.71875 -4.484375 21 -2.515625 C 19.289062 -0.554688 17.050781 0.421875 14.28125 0.421875 C 12.507812 0.421875 11.0625 0.0976562 9.9375 -0.546875 C 8.8125 -1.191406 7.925781 -1.960938 7.28125 -2.859375 L 6.984375 -2.859375 L 6.234375 0 L 3.578125 0 L 3.578125 -32 Z M 13.640625 -19.875 C 11.222656 -19.875 9.554688 -19.1875 8.640625 -17.8125 C 7.734375 -16.4375 7.28125 -14.300781 7.28125 -11.40625 L 7.28125 -11.25 C 7.28125 -8.46875 7.734375 -6.335938 8.640625 -4.859375 C 9.554688 -3.390625 11.253906 -2.65625 13.734375 -2.65625 C 15.753906 -2.65625 17.257812 -3.394531 18.25 -4.875 C 19.25 -6.363281 19.75 -8.515625 19.75 -11.328125 C 19.75 -17.023438 17.710938 -19.875 13.640625 -19.875 Z M 13.640625 -19.875 "/></g></g></g><g fill="#a6a6a6" fill-opacity="1"><g transform="translate(296.984505, 81.427101)"><g><path d="M 12.296875 -22.984375 C 14.203125 -22.984375 15.859375 -22.5625 17.265625 -21.71875 C 18.671875 -20.882812 19.742188 -19.703125 20.484375 -18.171875 C 21.234375 -16.640625 21.609375 -14.847656 21.609375 -12.796875 L 21.609375 -10.5625 L 6.140625 -10.5625 C 6.203125 -8.007812 6.859375 -6.066406 8.109375 -4.734375 C 9.359375 -3.398438 11.101562 -2.734375 13.34375 -2.734375 C 14.78125 -2.734375 16.050781 -2.863281 17.15625 -3.125 C 18.269531 -3.394531 19.414062 -3.785156 20.59375 -4.296875 L 20.59375 -1.046875 C 19.4375 -0.546875 18.296875 -0.175781 17.171875 0.0625 C 16.054688 0.300781 14.726562 0.421875 13.1875 0.421875 C 11.019531 0.421875 9.117188 -0.0078125 7.484375 -0.875 C 5.859375 -1.75 4.585938 -3.039062 3.671875 -4.75 C 2.765625 -6.46875 2.3125 -8.585938 2.3125 -11.109375 C 2.3125 -13.585938 2.722656 -15.707031 3.546875 -17.46875 C 4.378906 -19.238281 5.546875 -20.597656 7.046875 -21.546875 C 8.554688 -22.503906 10.304688 -22.984375 12.296875 -22.984375 Z M 12.25 -19.953125 C 10.476562 -19.953125 9.082031 -19.382812 8.0625 -18.25 C 7.039062 -17.113281 6.429688 -15.535156 6.234375 -13.515625 L 17.734375 -13.515625 C 17.703125 -15.421875 17.25 -16.96875 16.375 -18.15625 C 15.507812 -19.351562 14.132812 -19.953125 12.25 -19.953125 Z M 12.25 -19.953125 "/></g></g></g><g fill="#a6a6a6" fill-opacity="1"><g transform="translate(320.094422, 81.427101)"><g><path d="M 5.46875 -31.03125 C 6.03125 -31.03125 6.53125 -30.835938 6.96875 -30.453125 C 7.40625 -30.078125 7.625 -29.484375 7.625 -28.671875 C 7.625 -27.859375 7.40625 -27.257812 6.96875 -26.875 C 6.53125 -26.5 6.03125 -26.3125 5.46875 -26.3125 C 4.851562 -26.3125 4.332031 -26.5 3.90625 -26.875 C 3.488281 -27.257812 3.28125 -27.859375 3.28125 -28.671875 C 3.28125 -29.484375 3.488281 -30.078125 3.90625 -30.453125 C 4.332031 -30.835938 4.851562 -31.03125 5.46875 -31.03125 Z M 7.28125 -22.578125 L 7.28125 0 L 3.578125 0 L 3.578125 -22.578125 Z M 7.28125 -22.578125 "/></g></g></g><g fill="#a6a6a6" fill-opacity="1"><g transform="translate(330.323219, 81.427101)"><g><path d="M 14.109375 -22.984375 C 14.523438 -22.984375 14.972656 -22.960938 15.453125 -22.921875 C 15.929688 -22.878906 16.367188 -22.816406 16.765625 -22.734375 L 16.296875 -19.328125 C 15.929688 -19.410156 15.523438 -19.476562 15.078125 -19.53125 C 14.628906 -19.59375 14.222656 -19.625 13.859375 -19.625 C 12.703125 -19.625 11.617188 -19.304688 10.609375 -18.671875 C 9.597656 -18.046875 8.789062 -17.160156 8.1875 -16.015625 C 7.582031 -14.878906 7.28125 -13.554688 7.28125 -12.046875 L 7.28125 0 L 3.578125 0 L 3.578125 -22.578125 L 6.609375 -22.578125 L 7.03125 -18.4375 L 7.203125 -18.4375 C 7.898438 -19.675781 8.832031 -20.742188 10 -21.640625 C 11.164062 -22.535156 12.535156 -22.984375 14.109375 -22.984375 Z M 14.109375 -22.984375 "/></g></g></g><g fill="#a6a6a6" fill-opacity="1"><g transform="translate(347.076757, 81.427101)"><g><path d="M 23.203125 -11.328125 C 23.203125 -7.597656 22.253906 -4.707031 20.359375 -2.65625 C 18.460938 -0.601562 15.898438 0.421875 12.671875 0.421875 C 10.679688 0.421875 8.90625 -0.03125 7.34375 -0.9375 C 5.789062 -1.851562 4.5625 -3.1875 3.65625 -4.9375 C 2.757812 -6.695312 2.3125 -8.828125 2.3125 -11.328125 C 2.3125 -15.054688 3.242188 -17.929688 5.109375 -19.953125 C 6.984375 -21.972656 9.546875 -22.984375 12.796875 -22.984375 C 14.816406 -22.984375 16.613281 -22.523438 18.1875 -21.609375 C 19.757812 -20.703125 20.988281 -19.382812 21.875 -17.65625 C 22.757812 -15.9375 23.203125 -13.828125 23.203125 -11.328125 Z M 6.140625 -11.328125 C 6.140625 -8.660156 6.664062 -6.546875 7.71875 -4.984375 C 8.78125 -3.429688 10.460938 -2.65625 12.765625 -2.65625 C 15.035156 -2.65625 16.703125 -3.429688 17.765625 -4.984375 C 18.835938 -6.546875 19.375 -8.660156 19.375 -11.328125 C 19.375 -13.992188 18.835938 -16.082031 17.765625 -17.59375 C 16.703125 -19.113281 15.019531 -19.875 12.71875 -19.875 C 10.414062 -19.875 8.742188 -19.113281 7.703125 -17.59375 C 6.660156 -16.082031 6.140625 -13.992188 6.140625 -11.328125 Z M 6.140625 -11.328125 "/></g></g></g><g fill="#a6a6a6" fill-opacity="1"><g transform="translate(139.305969, 100.955884)"><g><path d="M 13.890625 -10.8125 L 11 0 L 9.625 0 L 7.53125 -7.078125 C 7.4375 -7.367188 7.347656 -7.660156 7.265625 -7.953125 C 7.191406 -8.253906 7.128906 -8.515625 7.078125 -8.734375 C 7.023438 -8.960938 6.992188 -9.125 6.984375 -9.21875 C 6.972656 -9.09375 6.914062 -8.8125 6.8125 -8.375 C 6.707031 -7.945312 6.59375 -7.503906 6.46875 -7.046875 L 4.421875 0 L 3.046875 0 L 0.1875 -10.8125 L 1.609375 -10.8125 L 3.28125 -4.203125 C 3.40625 -3.742188 3.507812 -3.296875 3.59375 -2.859375 C 3.675781 -2.421875 3.742188 -2.015625 3.796875 -1.640625 C 3.847656 -2.023438 3.921875 -2.453125 4.015625 -2.921875 C 4.117188 -3.390625 4.238281 -3.84375 4.375 -4.28125 L 6.28125 -10.8125 L 7.6875 -10.8125 L 9.671875 -4.234375 C 9.816406 -3.773438 9.9375 -3.3125 10.03125 -2.84375 C 10.132812 -2.382812 10.210938 -1.984375 10.265625 -1.640625 C 10.304688 -2.015625 10.375 -2.421875 10.46875 -2.859375 C 10.5625 -3.296875 10.671875 -3.75 10.796875 -4.21875 L 12.453125 -10.8125 Z M 13.890625 -10.8125 "/></g></g></g><g fill="#a6a6a6" fill-opacity="1"><g transform="translate(158.552003, 100.955884)"><g><path d="M 7.515625 0 L 1.46875 0 L 1.46875 -10.8125 L 7.515625 -10.8125 L 7.515625 -9.609375 L 2.828125 -9.609375 L 2.828125 -6.234375 L 7.234375 -6.234375 L 7.234375 -5.0625 L 2.828125 -5.0625 L 2.828125 -1.203125 L 7.515625 -1.203125 Z M 7.515625 0 "/></g></g></g><g fill="#a6a6a6" fill-opacity="1"><g transform="translate(172.140692, 100.955884)"><g><path d="M 1.46875 -10.8125 L 4.5625 -10.8125 C 5.90625 -10.8125 6.921875 -10.609375 7.609375 -10.203125 C 8.304688 -9.796875 8.65625 -9.101562 8.65625 -8.125 C 8.65625 -7.488281 8.476562 -6.960938 8.125 -6.546875 C 7.769531 -6.128906 7.257812 -5.859375 6.59375 -5.734375 L 6.59375 -5.65625 C 7.050781 -5.582031 7.460938 -5.445312 7.828125 -5.25 C 8.203125 -5.0625 8.492188 -4.789062 8.703125 -4.4375 C 8.921875 -4.082031 9.03125 -3.628906 9.03125 -3.078125 C 9.03125 -2.097656 8.691406 -1.335938 8.015625 -0.796875 C 7.347656 -0.265625 6.429688 0 5.265625 0 L 1.46875 0 Z M 2.828125 -6.203125 L 4.828125 -6.203125 C 5.742188 -6.203125 6.375 -6.347656 6.71875 -6.640625 C 7.070312 -6.941406 7.25 -7.390625 7.25 -7.984375 C 7.25 -8.578125 7.039062 -9 6.625 -9.25 C 6.207031 -9.507812 5.539062 -9.640625 4.625 -9.640625 L 2.828125 -9.640625 Z M 2.828125 -5.078125 L 2.828125 -1.15625 L 5.015625 -1.15625 C 5.972656 -1.15625 6.632812 -1.335938 7 -1.703125 C 7.375 -2.078125 7.5625 -2.566406 7.5625 -3.171875 C 7.5625 -3.742188 7.367188 -4.203125 6.984375 -4.546875 C 6.597656 -4.898438 5.90625 -5.078125 4.90625 -5.078125 Z M 2.828125 -5.078125 "/></g></g></g><g fill="#a6a6a6" fill-opacity="1"><g transform="translate(187.151275, 100.955884)"><g/></g></g><g fill="#a6a6a6" fill-opacity="1"><g transform="translate(196.262479, 100.955884)"><g><path d="M 10.125 -5.515625 C 10.125 -3.679688 9.625 -2.300781 8.625 -1.375 C 7.632812 -0.457031 6.253906 0 4.484375 0 L 1.46875 0 L 1.46875 -10.8125 L 4.796875 -10.8125 C 5.878906 -10.8125 6.820312 -10.609375 7.625 -10.203125 C 8.425781 -9.796875 9.039062 -9.195312 9.46875 -8.40625 C 9.90625 -7.625 10.125 -6.660156 10.125 -5.515625 Z M 8.6875 -5.46875 C 8.6875 -6.90625 8.332031 -7.957031 7.625 -8.625 C 6.914062 -9.300781 5.910156 -9.640625 4.609375 -9.640625 L 2.828125 -9.640625 L 2.828125 -1.171875 L 4.296875 -1.171875 C 7.222656 -1.171875 8.6875 -2.601562 8.6875 -5.46875 Z M 8.6875 -5.46875 "/></g></g></g><g fill="#a6a6a6" fill-opacity="1"><g transform="translate(212.4832, 100.955884)"><g><path d="M 7.515625 0 L 1.46875 0 L 1.46875 -10.8125 L 7.515625 -10.8125 L 7.515625 -9.609375 L 2.828125 -9.609375 L 2.828125 -6.234375 L 7.234375 -6.234375 L 7.234375 -5.0625 L 2.828125 -5.0625 L 2.828125 -1.203125 L 7.515625 -1.203125 Z M 7.515625 0 "/></g></g></g><g fill="#a6a6a6" fill-opacity="1"><g transform="translate(226.07189, 100.955884)"><g><path d="M 9.078125 -10.8125 L 5.21875 0 L 3.859375 0 L 0 -10.8125 L 1.421875 -10.8125 L 3.859375 -3.875 C 4.023438 -3.425781 4.160156 -3.007812 4.265625 -2.625 C 4.367188 -2.238281 4.460938 -1.867188 4.546875 -1.515625 C 4.609375 -1.867188 4.695312 -2.238281 4.8125 -2.625 C 4.925781 -3.019531 5.0625 -3.445312 5.21875 -3.90625 L 7.640625 -10.8125 Z M 9.078125 -10.8125 "/></g></g></g><g fill="#a6a6a6" fill-opacity="1"><g transform="translate(240.32614, 100.955884)"><g><path d="M 7.515625 0 L 1.46875 0 L 1.46875 -10.8125 L 7.515625 -10.8125 L 7.515625 -9.609375 L 2.828125 -9.609375 L 2.828125 -6.234375 L 7.234375 -6.234375 L 7.234375 -5.0625 L 2.828125 -5.0625 L 2.828125 -1.203125 L 7.515625 -1.203125 Z M 7.515625 0 "/></g></g></g><g fill="#a6a6a6" fill-opacity="1"><g transform="translate(253.91483, 100.955884)"><g><path d="M 1.46875 0 L 1.46875 -10.8125 L 2.828125 -10.8125 L 2.828125 -1.21875 L 7.5625 -1.21875 L 7.5625 0 Z M 1.46875 0 "/></g></g></g><g fill="#a6a6a6" fill-opacity="1"><g transform="translate(267.019467, 100.955884)"><g><path d="M 10.90625 -5.421875 C 10.90625 -4.296875 10.710938 -3.316406 10.328125 -2.484375 C 9.953125 -1.648438 9.394531 -1 8.65625 -0.53125 C 7.914062 -0.0703125 7.003906 0.15625 5.921875 0.15625 C 4.796875 0.15625 3.863281 -0.0703125 3.125 -0.53125 C 2.382812 -1 1.832031 -1.648438 1.46875 -2.484375 C 1.101562 -3.328125 0.921875 -4.3125 0.921875 -5.4375 C 0.921875 -6.53125 1.101562 -7.492188 1.46875 -8.328125 C 1.832031 -9.160156 2.382812 -9.8125 3.125 -10.28125 C 3.863281 -10.75 4.800781 -10.984375 5.9375 -10.984375 C 7.019531 -10.984375 7.925781 -10.75 8.65625 -10.28125 C 9.394531 -9.820312 9.953125 -9.175781 10.328125 -8.34375 C 10.710938 -7.507812 10.90625 -6.535156 10.90625 -5.421875 Z M 2.359375 -5.421875 C 2.359375 -4.054688 2.644531 -2.984375 3.21875 -2.203125 C 3.800781 -1.421875 4.703125 -1.03125 5.921875 -1.03125 C 7.140625 -1.03125 8.035156 -1.421875 8.609375 -2.203125 C 9.179688 -2.984375 9.46875 -4.054688 9.46875 -5.421875 C 9.46875 -6.785156 9.179688 -7.851562 8.609375 -8.625 C 8.046875 -9.394531 7.15625 -9.78125 5.9375 -9.78125 C 4.707031 -9.78125 3.800781 -9.394531 3.21875 -8.625 C 2.644531 -7.851562 2.359375 -6.785156 2.359375 -5.421875 Z M 2.359375 -5.421875 "/></g></g></g><g fill="#a6a6a6" fill-opacity="1"><g transform="translate(284.011635, 100.955884)"><g><path d="M 4.328125 -10.8125 C 5.742188 -10.8125 6.773438 -10.53125 7.421875 -9.96875 C 8.066406 -9.414062 8.390625 -8.632812 8.390625 -7.625 C 8.390625 -7.03125 8.253906 -6.472656 7.984375 -5.953125 C 7.710938 -5.429688 7.257812 -5.007812 6.625 -4.6875 C 6 -4.363281 5.148438 -4.203125 4.078125 -4.203125 L 2.828125 -4.203125 L 2.828125 0 L 1.46875 0 L 1.46875 -10.8125 Z M 4.203125 -9.640625 L 2.828125 -9.640625 L 2.828125 -5.375 L 3.921875 -5.375 C 4.953125 -5.375 5.71875 -5.539062 6.21875 -5.875 C 6.726562 -6.207031 6.984375 -6.769531 6.984375 -7.5625 C 6.984375 -8.257812 6.753906 -8.78125 6.296875 -9.125 C 5.847656 -9.46875 5.148438 -9.640625 4.203125 -9.640625 Z M 4.203125 -9.640625 "/></g></g></g><g fill="#a6a6a6" fill-opacity="1"><g transform="translate(298.341518, 100.955884)"><g><path d="M 7.515625 0 L 1.46875 0 L 1.46875 -10.8125 L 7.515625 -10.8125 L 7.515625 -9.609375 L 2.828125 -9.609375 L 2.828125 -6.234375 L 7.234375 -6.234375 L 7.234375 -5.0625 L 2.828125 -5.0625 L 2.828125 -1.203125 L 7.515625 -1.203125 Z M 7.515625 0 "/></g></g></g><g fill="#a6a6a6" fill-opacity="1"><g transform="translate(311.930199, 100.955884)"><g><path d="M 4.453125 -10.8125 C 5.796875 -10.8125 6.785156 -10.554688 7.421875 -10.046875 C 8.066406 -9.535156 8.390625 -8.765625 8.390625 -7.734375 C 8.390625 -7.160156 8.28125 -6.679688 8.0625 -6.296875 C 7.851562 -5.910156 7.582031 -5.601562 7.25 -5.375 C 6.925781 -5.144531 6.582031 -4.96875 6.21875 -4.84375 L 9.1875 0 L 7.59375 0 L 4.984375 -4.46875 L 2.828125 -4.46875 L 2.828125 0 L 1.46875 0 L 1.46875 -10.8125 Z M 4.375 -9.625 L 2.828125 -9.625 L 2.828125 -5.609375 L 4.453125 -5.609375 C 5.328125 -5.609375 5.96875 -5.78125 6.375 -6.125 C 6.78125 -6.476562 6.984375 -6.992188 6.984375 -7.671875 C 6.984375 -8.378906 6.769531 -8.878906 6.34375 -9.171875 C 5.914062 -9.472656 5.257812 -9.625 4.375 -9.625 Z M 4.375 -9.625 "/></g></g></g><g fill="#a6a6a6" fill-opacity="1"><g transform="translate(39.855078, 131.214078)"><g><path d="M 55.308594 -47.179688 L 22.125 -80.367188 L 11.195312 -69.4375 L 33.585938 -47.3125 L 10.664062 -24.390625 L 21.589844 -13.460938 Z M 55.308594 -47.179688 "/></g></g></g><g fill="#a6a6a6" fill-opacity="1"><g transform="translate(64.960547, 18.780773)"><g><path d="M -55.308594 47.179688 L -22.125 80.367188 L -11.195312 69.4375 L -33.585938 47.3125 L -10.664062 24.390625 L -21.589844 13.460938 Z M -55.308594 47.179688 "/></g></g></g><g fill="#a6a6a6" fill-opacity="1"><g transform="translate(44.49978, 69.616148)"><g><path d="M 1.21875 1.21875 L 0.890625 0.890625 L 3.296875 -1.515625 L 2.4375 -2.375 L 2.734375 -2.671875 L 4.765625 -0.640625 L 4.46875 -0.34375 L 3.625 -1.1875 Z M 1.21875 1.21875 "/></g></g></g><g fill="#a6a6a6" fill-opacity="1"><g transform="translate(47.898896, 73.015265)"><g><path d="M 1.875 1.875 L 0.359375 0.359375 L 3.0625 -2.34375 L 4.578125 -0.828125 L 4.28125 -0.53125 L 3.109375 -1.703125 L 2.265625 -0.859375 L 3.375 0.25 L 3.078125 0.546875 L 1.96875 -0.5625 L 1 0.40625 L 2.171875 1.578125 Z M 1.875 1.875 "/></g></g></g><g fill="#a6a6a6" fill-opacity="1"><g transform="translate(51.298013, 76.414382)"><g><path d="M 3.96875 -0.90625 C 3.675781 -1.195312 3.347656 -1.328125 2.984375 -1.296875 C 2.628906 -1.273438 2.28125 -1.09375 1.9375 -0.75 C 1.601562 -0.414062 1.414062 -0.078125 1.375 0.265625 C 1.34375 0.617188 1.484375 0.953125 1.796875 1.265625 C 1.910156 1.378906 2.03125 1.476562 2.15625 1.5625 C 2.28125 1.644531 2.40625 1.726562 2.53125 1.8125 L 2.25 2.09375 C 2.101562 2.03125 1.96875 1.953125 1.84375 1.859375 C 1.726562 1.773438 1.59375 1.65625 1.4375 1.5 C 1.164062 1.226562 0.992188 0.945312 0.921875 0.65625 C 0.847656 0.363281 0.867188 0.0664062 0.984375 -0.234375 C 1.097656 -0.535156 1.300781 -0.832031 1.59375 -1.125 C 1.863281 -1.394531 2.148438 -1.582031 2.453125 -1.6875 C 2.765625 -1.800781 3.070312 -1.816406 3.375 -1.734375 C 3.6875 -1.660156 3.984375 -1.484375 4.265625 -1.203125 C 4.546875 -0.921875 4.742188 -0.617188 4.859375 -0.296875 L 4.4375 -0.15625 C 4.394531 -0.28125 4.335938 -0.40625 4.265625 -0.53125 C 4.191406 -0.65625 4.09375 -0.78125 3.96875 -0.90625 Z M 3.96875 -0.90625 "/></g></g></g><g fill="#a6a6a6" fill-opacity="1"><g transform="translate(54.98481, 80.101179)"><g><path d="M 2.4375 2.4375 L 2.09375 2.09375 L 3.359375 0.828125 L 1.96875 -0.5625 L 0.703125 0.703125 L 0.359375 0.359375 L 3.0625 -2.34375 L 3.40625 -2 L 2.265625 -0.859375 L 3.65625 0.53125 L 4.796875 -0.609375 L 5.140625 -0.265625 Z M 2.4375 2.4375 "/></g></g></g></svg>