<svg xmlns="http://www.w3.org/2000/svg" xmlns:xlink="http://www.w3.org/1999/xlink" width="500" zoomAndPan="magnify" viewBox="0 0 375 374.999991" height="500" preserveAspectRatio="xMidYMid meet" version="1.0"><defs><g/></defs><g fill="#a6a6a6" fill-opacity="1"><g transform="translate(96.11497, 266.815002)"><g><path d="M 8.40625 -20.421875 C 10.9375 -20.421875 12.804688 -19.9375 14.015625 -18.96875 C 15.234375 -18.007812 15.84375 -16.554688 15.84375 -14.609375 C 15.84375 -13.523438 15.640625 -12.617188 15.234375 -11.890625 C 14.835938 -11.171875 14.328125 -10.59375 13.703125 -10.15625 C 13.085938 -9.71875 12.4375 -9.382812 11.75 -9.15625 L 17.359375 0 L 14.359375 0 L 9.40625 -8.4375 L 5.34375 -8.4375 L 5.34375 0 L 2.78125 0 L 2.78125 -20.421875 Z M 8.265625 -18.1875 L 5.34375 -18.1875 L 5.34375 -10.609375 L 8.40625 -10.609375 C 10.0625 -10.609375 11.269531 -10.9375 12.03125 -11.59375 C 12.800781 -12.25 13.1875 -13.21875 13.1875 -14.5 C 13.1875 -15.832031 12.785156 -16.78125 11.984375 -17.34375 C 11.179688 -17.90625 9.941406 -18.1875 8.265625 -18.1875 Z M 8.265625 -18.1875 "/></g></g></g><g fill="#a6a6a6" fill-opacity="1"><g transform="translate(113.464007, 266.815002)"><g><path d="M 8.234375 -15.578125 C 10.097656 -15.578125 11.476562 -15.164062 12.375 -14.34375 C 13.269531 -13.53125 13.71875 -12.226562 13.71875 -10.4375 L 13.71875 0 L 11.890625 0 L 11.40625 -2.171875 L 11.296875 -2.171875 C 10.628906 -1.335938 9.921875 -0.71875 9.171875 -0.3125 C 8.429688 0.0820312 7.421875 0.28125 6.140625 0.28125 C 4.753906 0.28125 3.601562 -0.0820312 2.6875 -0.8125 C 1.769531 -1.550781 1.3125 -2.703125 1.3125 -4.265625 C 1.3125 -5.785156 1.910156 -6.957031 3.109375 -7.78125 C 4.316406 -8.613281 6.164062 -9.070312 8.65625 -9.15625 L 11.265625 -9.234375 L 11.265625 -10.15625 C 11.265625 -11.425781 10.988281 -12.304688 10.4375 -12.796875 C 9.882812 -13.296875 9.101562 -13.546875 8.09375 -13.546875 C 7.289062 -13.546875 6.523438 -13.425781 5.796875 -13.1875 C 5.078125 -12.957031 4.40625 -12.6875 3.78125 -12.375 L 3 -14.265625 C 3.664062 -14.628906 4.457031 -14.9375 5.375 -15.1875 C 6.289062 -15.445312 7.242188 -15.578125 8.234375 -15.578125 Z M 11.234375 -7.484375 L 8.984375 -7.40625 C 7.078125 -7.332031 5.753906 -7.023438 5.015625 -6.484375 C 4.285156 -5.953125 3.921875 -5.203125 3.921875 -4.234375 C 3.921875 -3.367188 4.179688 -2.738281 4.703125 -2.34375 C 5.222656 -1.945312 5.894531 -1.75 6.71875 -1.75 C 8 -1.75 9.070312 -2.101562 9.9375 -2.8125 C 10.800781 -3.53125 11.234375 -4.632812 11.234375 -6.125 Z M 11.234375 -7.484375 "/></g></g></g><g fill="#a6a6a6" fill-opacity="1"><g transform="translate(129.069549, 266.815002)"><g><path d="M 9.5 -13.375 L 5.640625 -13.375 L 5.640625 0 L 3.109375 0 L 3.109375 -13.375 L 0.421875 -13.375 L 0.421875 -14.546875 L 3.109375 -15.40625 L 3.109375 -16.296875 C 3.109375 -18.273438 3.539062 -19.695312 4.40625 -20.5625 C 5.28125 -21.4375 6.507812 -21.875 8.09375 -21.875 C 8.6875 -21.875 9.238281 -21.820312 9.75 -21.71875 C 10.257812 -21.613281 10.695312 -21.492188 11.0625 -21.359375 L 10.40625 -19.390625 C 10.101562 -19.484375 9.75 -19.578125 9.34375 -19.671875 C 8.945312 -19.765625 8.539062 -19.8125 8.125 -19.8125 C 7.28125 -19.8125 6.65625 -19.53125 6.25 -18.96875 C 5.84375 -18.40625 5.640625 -17.523438 5.640625 -16.328125 L 5.640625 -15.328125 L 9.5 -15.328125 Z M 9.5 -13.375 "/></g></g></g><g fill="#a6a6a6" fill-opacity="1"><g transform="translate(138.472807, 266.815002)"><g><path d="M 8.234375 -15.578125 C 10.097656 -15.578125 11.476562 -15.164062 12.375 -14.34375 C 13.269531 -13.53125 13.71875 -12.226562 13.71875 -10.4375 L 13.71875 0 L 11.890625 0 L 11.40625 -2.171875 L 11.296875 -2.171875 C 10.628906 -1.335938 9.921875 -0.71875 9.171875 -0.3125 C 8.429688 0.0820312 7.421875 0.28125 6.140625 0.28125 C 4.753906 0.28125 3.601562 -0.0820312 2.6875 -0.8125 C 1.769531 -1.550781 1.3125 -2.703125 1.3125 -4.265625 C 1.3125 -5.785156 1.910156 -6.957031 3.109375 -7.78125 C 4.316406 -8.613281 6.164062 -9.070312 8.65625 -9.15625 L 11.265625 -9.234375 L 11.265625 -10.15625 C 11.265625 -11.425781 10.988281 -12.304688 10.4375 -12.796875 C 9.882812 -13.296875 9.101562 -13.546875 8.09375 -13.546875 C 7.289062 -13.546875 6.523438 -13.425781 5.796875 -13.1875 C 5.078125 -12.957031 4.40625 -12.6875 3.78125 -12.375 L 3 -14.265625 C 3.664062 -14.628906 4.457031 -14.9375 5.375 -15.1875 C 6.289062 -15.445312 7.242188 -15.578125 8.234375 -15.578125 Z M 11.234375 -7.484375 L 8.984375 -7.40625 C 7.078125 -7.332031 5.753906 -7.023438 5.015625 -6.484375 C 4.285156 -5.953125 3.921875 -5.203125 3.921875 -4.234375 C 3.921875 -3.367188 4.179688 -2.738281 4.703125 -2.34375 C 5.222656 -1.945312 5.894531 -1.75 6.71875 -1.75 C 8 -1.75 9.070312 -2.101562 9.9375 -2.8125 C 10.800781 -3.53125 11.234375 -4.632812 11.234375 -6.125 Z M 11.234375 -7.484375 "/></g></g></g><g fill="#a6a6a6" fill-opacity="1"><g transform="translate(154.078347, 266.815002)"><g><path d="M 8.34375 -15.609375 C 9.644531 -15.609375 10.769531 -15.320312 11.71875 -14.75 C 12.675781 -14.175781 13.40625 -13.367188 13.90625 -12.328125 C 14.414062 -11.296875 14.671875 -10.082031 14.671875 -8.6875 L 14.671875 -7.171875 L 4.171875 -7.171875 C 4.210938 -5.441406 4.65625 -4.125 5.5 -3.21875 C 6.351562 -2.3125 7.539062 -1.859375 9.0625 -1.859375 C 10.03125 -1.859375 10.890625 -1.945312 11.640625 -2.125 C 12.398438 -2.3125 13.179688 -2.578125 13.984375 -2.921875 L 13.984375 -0.71875 C 13.203125 -0.375 12.425781 -0.125 11.65625 0.03125 C 10.894531 0.195312 9.992188 0.28125 8.953125 0.28125 C 7.484375 0.28125 6.195312 -0.0078125 5.09375 -0.59375 C 3.988281 -1.1875 3.125 -2.0625 2.5 -3.21875 C 1.882812 -4.382812 1.578125 -5.828125 1.578125 -7.546875 C 1.578125 -9.222656 1.859375 -10.660156 2.421875 -11.859375 C 2.984375 -13.066406 3.769531 -13.992188 4.78125 -14.640625 C 5.800781 -15.285156 6.988281 -15.609375 8.34375 -15.609375 Z M 8.328125 -13.546875 C 7.117188 -13.546875 6.164062 -13.160156 5.46875 -12.390625 C 4.78125 -11.617188 4.367188 -10.546875 4.234375 -9.171875 L 12.03125 -9.171875 C 12.019531 -10.472656 11.71875 -11.523438 11.125 -12.328125 C 10.53125 -13.140625 9.597656 -13.546875 8.328125 -13.546875 Z M 8.328125 -13.546875 "/></g></g></g><g fill="#a6a6a6" fill-opacity="1"><g transform="translate(169.769637, 266.815002)"><g><path d="M 4.953125 0 L 2.4375 0 L 2.4375 -21.734375 L 4.953125 -21.734375 Z M 4.953125 0 "/></g></g></g><g fill="#a6a6a6" fill-opacity="1"><g transform="translate(176.714839, 266.815002)"><g/></g></g><g fill="#a6a6a6" fill-opacity="1"><g transform="translate(186.118094, 266.815002)"><g><path d="M 8.40625 -20.421875 C 10.9375 -20.421875 12.804688 -19.9375 14.015625 -18.96875 C 15.234375 -18.007812 15.84375 -16.554688 15.84375 -14.609375 C 15.84375 -13.523438 15.640625 -12.617188 15.234375 -11.890625 C 14.835938 -11.171875 14.328125 -10.59375 13.703125 -10.15625 C 13.085938 -9.71875 12.4375 -9.382812 11.75 -9.15625 L 17.359375 0 L 14.359375 0 L 9.40625 -8.4375 L 5.34375 -8.4375 L 5.34375 0 L 2.78125 0 L 2.78125 -20.421875 Z M 8.265625 -18.1875 L 5.34375 -18.1875 L 5.34375 -10.609375 L 8.40625 -10.609375 C 10.0625 -10.609375 11.269531 -10.9375 12.03125 -11.59375 C 12.800781 -12.25 13.1875 -13.21875 13.1875 -14.5 C 13.1875 -15.832031 12.785156 -16.78125 11.984375 -17.34375 C 11.179688 -17.90625 9.941406 -18.1875 8.265625 -18.1875 Z M 8.265625 -18.1875 "/></g></g></g><g fill="#a6a6a6" fill-opacity="1"><g transform="translate(203.467136, 266.815002)"><g><path d="M 3.71875 -21.078125 C 4.101562 -21.078125 4.441406 -20.945312 4.734375 -20.6875 C 5.023438 -20.425781 5.171875 -20.019531 5.171875 -19.46875 C 5.171875 -18.914062 5.023438 -18.507812 4.734375 -18.25 C 4.441406 -18 4.101562 -17.875 3.71875 -17.875 C 3.300781 -17.875 2.945312 -18 2.65625 -18.25 C 2.375 -18.507812 2.234375 -18.914062 2.234375 -19.46875 C 2.234375 -20.019531 2.375 -20.425781 2.65625 -20.6875 C 2.945312 -20.945312 3.300781 -21.078125 3.71875 -21.078125 Z M 4.953125 -15.328125 L 4.953125 0 L 2.4375 0 L 2.4375 -15.328125 Z M 4.953125 -15.328125 "/></g></g></g><g fill="#a6a6a6" fill-opacity="1"><g transform="translate(210.412337, 266.815002)"><g><path d="M 4.953125 -21.734375 L 4.953125 -16.4375 C 4.953125 -15.789062 4.9375 -15.1875 4.90625 -14.625 C 4.875 -14.0625 4.835938 -13.617188 4.796875 -13.296875 L 4.953125 -13.296875 C 5.390625 -13.941406 5.988281 -14.484375 6.75 -14.921875 C 7.507812 -15.359375 8.488281 -15.578125 9.6875 -15.578125 C 11.59375 -15.578125 13.125 -14.914062 14.28125 -13.59375 C 15.4375 -12.269531 16.015625 -10.289062 16.015625 -7.65625 C 16.015625 -5.03125 15.429688 -3.050781 14.265625 -1.71875 C 13.109375 -0.382812 11.582031 0.28125 9.6875 0.28125 C 8.488281 0.28125 7.507812 0.0625 6.75 -0.375 C 5.988281 -0.8125 5.390625 -1.332031 4.953125 -1.9375 L 4.75 -1.9375 L 4.234375 0 L 2.4375 0 L 2.4375 -21.734375 Z M 9.265625 -13.5 C 7.628906 -13.5 6.5 -13.03125 5.875 -12.09375 C 5.257812 -11.15625 4.953125 -9.707031 4.953125 -7.75 L 4.953125 -7.640625 C 4.953125 -5.742188 5.257812 -4.296875 5.875 -3.296875 C 6.5 -2.296875 7.648438 -1.796875 9.328125 -1.796875 C 10.691406 -1.796875 11.710938 -2.300781 12.390625 -3.3125 C 13.066406 -4.320312 13.40625 -5.78125 13.40625 -7.6875 C 13.40625 -11.5625 12.023438 -13.5 9.265625 -13.5 Z M 9.265625 -13.5 "/></g></g></g><g fill="#a6a6a6" fill-opacity="1"><g transform="translate(227.561307, 266.815002)"><g><path d="M 8.34375 -15.609375 C 9.644531 -15.609375 10.769531 -15.320312 11.71875 -14.75 C 12.675781 -14.175781 13.40625 -13.367188 13.90625 -12.328125 C 14.414062 -11.296875 14.671875 -10.082031 14.671875 -8.6875 L 14.671875 -7.171875 L 4.171875 -7.171875 C 4.210938 -5.441406 4.65625 -4.125 5.5 -3.21875 C 6.351562 -2.3125 7.539062 -1.859375 9.0625 -1.859375 C 10.03125 -1.859375 10.890625 -1.945312 11.640625 -2.125 C 12.398438 -2.3125 13.179688 -2.578125 13.984375 -2.921875 L 13.984375 -0.71875 C 13.203125 -0.375 12.425781 -0.125 11.65625 0.03125 C 10.894531 0.195312 9.992188 0.28125 8.953125 0.28125 C 7.484375 0.28125 6.195312 -0.0078125 5.09375 -0.59375 C 3.988281 -1.1875 3.125 -2.0625 2.5 -3.21875 C 1.882812 -4.382812 1.578125 -5.828125 1.578125 -7.546875 C 1.578125 -9.222656 1.859375 -10.660156 2.421875 -11.859375 C 2.984375 -13.066406 3.769531 -13.992188 4.78125 -14.640625 C 5.800781 -15.285156 6.988281 -15.609375 8.34375 -15.609375 Z M 8.328125 -13.546875 C 7.117188 -13.546875 6.164062 -13.160156 5.46875 -12.390625 C 4.78125 -11.617188 4.367188 -10.546875 4.234375 -9.171875 L 12.03125 -9.171875 C 12.019531 -10.472656 11.71875 -11.523438 11.125 -12.328125 C 10.53125 -13.140625 9.597656 -13.546875 8.328125 -13.546875 Z M 8.328125 -13.546875 "/></g></g></g><g fill="#a6a6a6" fill-opacity="1"><g transform="translate(243.252598, 266.815002)"><g><path d="M 3.71875 -21.078125 C 4.101562 -21.078125 4.441406 -20.945312 4.734375 -20.6875 C 5.023438 -20.425781 5.171875 -20.019531 5.171875 -19.46875 C 5.171875 -18.914062 5.023438 -18.507812 4.734375 -18.25 C 4.441406 -18 4.101562 -17.875 3.71875 -17.875 C 3.300781 -17.875 2.945312 -18 2.65625 -18.25 C 2.375 -18.507812 2.234375 -18.914062 2.234375 -19.46875 C 2.234375 -20.019531 2.375 -20.425781 2.65625 -20.6875 C 2.945312 -20.945312 3.300781 -21.078125 3.71875 -21.078125 Z M 4.953125 -15.328125 L 4.953125 0 L 2.4375 0 L 2.4375 -15.328125 Z M 4.953125 -15.328125 "/></g></g></g><g fill="#a6a6a6" fill-opacity="1"><g transform="translate(250.197799, 266.815002)"><g><path d="M 9.578125 -15.609375 C 9.867188 -15.609375 10.175781 -15.59375 10.5 -15.5625 C 10.820312 -15.539062 11.113281 -15.5 11.375 -15.4375 L 11.0625 -13.125 C 10.8125 -13.175781 10.535156 -13.222656 10.234375 -13.265625 C 9.929688 -13.304688 9.65625 -13.328125 9.40625 -13.328125 C 8.625 -13.328125 7.890625 -13.109375 7.203125 -12.671875 C 6.515625 -12.242188 5.96875 -11.644531 5.5625 -10.875 C 5.15625 -10.101562 4.953125 -9.203125 4.953125 -8.171875 L 4.953125 0 L 2.4375 0 L 2.4375 -15.328125 L 4.484375 -15.328125 L 4.78125 -12.53125 L 4.890625 -12.53125 C 5.367188 -13.363281 6.003906 -14.082031 6.796875 -14.6875 C 7.585938 -15.300781 8.515625 -15.609375 9.578125 -15.609375 Z M 9.578125 -15.609375 "/></g></g></g><g fill="#a6a6a6" fill-opacity="1"><g transform="translate(261.573203, 266.815002)"><g><path d="M 15.75 -7.6875 C 15.75 -5.15625 15.101562 -3.191406 13.8125 -1.796875 C 12.53125 -0.410156 10.796875 0.28125 8.609375 0.28125 C 7.253906 0.28125 6.046875 -0.0234375 4.984375 -0.640625 C 3.929688 -1.265625 3.097656 -2.171875 2.484375 -3.359375 C 1.878906 -4.546875 1.578125 -5.988281 1.578125 -7.6875 C 1.578125 -10.226562 2.207031 -12.179688 3.46875 -13.546875 C 4.738281 -14.921875 6.476562 -15.609375 8.6875 -15.609375 C 10.0625 -15.609375 11.28125 -15.296875 12.34375 -14.671875 C 13.414062 -14.054688 14.25 -13.160156 14.84375 -11.984375 C 15.445312 -10.816406 15.75 -9.382812 15.75 -7.6875 Z M 4.171875 -7.6875 C 4.171875 -5.875 4.523438 -4.4375 5.234375 -3.375 C 5.953125 -2.320312 7.09375 -1.796875 8.65625 -1.796875 C 10.207031 -1.796875 11.34375 -2.320312 12.0625 -3.375 C 12.789062 -4.4375 13.15625 -5.875 13.15625 -7.6875 C 13.15625 -9.5 12.789062 -10.921875 12.0625 -11.953125 C 11.34375 -12.984375 10.203125 -13.5 8.640625 -13.5 C 7.078125 -13.5 5.941406 -12.984375 5.234375 -11.953125 C 4.523438 -10.921875 4.171875 -9.5 4.171875 -7.6875 Z M 4.171875 -7.6875 "/></g></g></g><g fill="#a6a6a6" fill-opacity="1"><g transform="translate(123.689659, 288.743535)"><g><path d="M 9.734375 -7.578125 L 7.71875 0 L 6.75 0 L 5.265625 -4.96875 C 5.203125 -5.164062 5.144531 -5.367188 5.09375 -5.578125 C 5.039062 -5.785156 4.992188 -5.96875 4.953125 -6.125 C 4.921875 -6.28125 4.898438 -6.394531 4.890625 -6.46875 C 4.878906 -6.375 4.835938 -6.175781 4.765625 -5.875 C 4.703125 -5.570312 4.625 -5.257812 4.53125 -4.9375 L 3.09375 0 L 2.125 0 L 0.125 -7.578125 L 1.125 -7.578125 L 2.296875 -2.953125 C 2.378906 -2.628906 2.453125 -2.3125 2.515625 -2 C 2.578125 -1.695312 2.625 -1.410156 2.65625 -1.140625 C 2.695312 -1.421875 2.75 -1.722656 2.8125 -2.046875 C 2.882812 -2.367188 2.96875 -2.6875 3.0625 -3 L 4.40625 -7.578125 L 5.390625 -7.578125 L 6.78125 -2.96875 C 6.875 -2.644531 6.957031 -2.316406 7.03125 -1.984375 C 7.101562 -1.660156 7.15625 -1.378906 7.1875 -1.140625 C 7.21875 -1.398438 7.265625 -1.6875 7.328125 -2 C 7.398438 -2.3125 7.476562 -2.628906 7.5625 -2.953125 L 8.734375 -7.578125 Z M 9.734375 -7.578125 "/></g></g></g><g fill="#a6a6a6" fill-opacity="1"><g transform="translate(137.183277, 288.743535)"><g><path d="M 5.265625 0 L 1.03125 0 L 1.03125 -7.578125 L 5.265625 -7.578125 L 5.265625 -6.734375 L 1.984375 -6.734375 L 1.984375 -4.375 L 5.078125 -4.375 L 5.078125 -3.546875 L 1.984375 -3.546875 L 1.984375 -0.84375 L 5.265625 -0.84375 Z M 5.265625 0 "/></g></g></g><g fill="#a6a6a6" fill-opacity="1"><g transform="translate(146.710466, 288.743535)"><g><path d="M 1.03125 -7.578125 L 3.1875 -7.578125 C 4.132812 -7.578125 4.847656 -7.429688 5.328125 -7.140625 C 5.816406 -6.859375 6.0625 -6.378906 6.0625 -5.703125 C 6.0625 -5.253906 5.9375 -4.878906 5.6875 -4.578125 C 5.445312 -4.285156 5.09375 -4.097656 4.625 -4.015625 L 4.625 -3.96875 C 4.945312 -3.914062 5.234375 -3.820312 5.484375 -3.6875 C 5.742188 -3.550781 5.945312 -3.359375 6.09375 -3.109375 C 6.25 -2.859375 6.328125 -2.539062 6.328125 -2.15625 C 6.328125 -1.46875 6.085938 -0.9375 5.609375 -0.5625 C 5.140625 -0.1875 4.5 0 3.6875 0 L 1.03125 0 Z M 1.984375 -4.34375 L 3.390625 -4.34375 C 4.023438 -4.34375 4.460938 -4.445312 4.703125 -4.65625 C 4.953125 -4.863281 5.078125 -5.175781 5.078125 -5.59375 C 5.078125 -6.007812 4.929688 -6.304688 4.640625 -6.484375 C 4.347656 -6.671875 3.878906 -6.765625 3.234375 -6.765625 L 1.984375 -6.765625 Z M 1.984375 -3.546875 L 1.984375 -0.8125 L 3.515625 -0.8125 C 4.179688 -0.8125 4.644531 -0.941406 4.90625 -1.203125 C 5.175781 -1.460938 5.3125 -1.804688 5.3125 -2.234375 C 5.3125 -2.628906 5.171875 -2.945312 4.890625 -3.1875 C 4.617188 -3.425781 4.132812 -3.546875 3.4375 -3.546875 Z M 1.984375 -3.546875 "/></g></g></g><g fill="#a6a6a6" fill-opacity="1"><g transform="translate(157.234561, 288.743535)"><g/></g></g><g fill="#a6a6a6" fill-opacity="1"><g transform="translate(163.622532, 288.743535)"><g><path d="M 7.09375 -3.859375 C 7.09375 -2.578125 6.742188 -1.613281 6.046875 -0.96875 C 5.347656 -0.320312 4.378906 0 3.140625 0 L 1.03125 0 L 1.03125 -7.578125 L 3.359375 -7.578125 C 4.117188 -7.578125 4.78125 -7.429688 5.34375 -7.140625 C 5.90625 -6.859375 6.335938 -6.441406 6.640625 -5.890625 C 6.941406 -5.347656 7.09375 -4.671875 7.09375 -3.859375 Z M 6.09375 -3.828125 C 6.09375 -4.835938 5.84375 -5.578125 5.34375 -6.046875 C 4.84375 -6.523438 4.132812 -6.765625 3.21875 -6.765625 L 1.984375 -6.765625 L 1.984375 -0.8125 L 3.015625 -0.8125 C 5.066406 -0.8125 6.09375 -1.816406 6.09375 -3.828125 Z M 6.09375 -3.828125 "/></g></g></g><g fill="#a6a6a6" fill-opacity="1"><g transform="translate(174.995069, 288.743535)"><g><path d="M 5.265625 0 L 1.03125 0 L 1.03125 -7.578125 L 5.265625 -7.578125 L 5.265625 -6.734375 L 1.984375 -6.734375 L 1.984375 -4.375 L 5.078125 -4.375 L 5.078125 -3.546875 L 1.984375 -3.546875 L 1.984375 -0.84375 L 5.265625 -0.84375 Z M 5.265625 0 "/></g></g></g><g fill="#a6a6a6" fill-opacity="1"><g transform="translate(184.522258, 288.743535)"><g><path d="M 6.359375 -7.578125 L 3.65625 0 L 2.703125 0 L 0 -7.578125 L 1 -7.578125 L 2.703125 -2.71875 C 2.816406 -2.40625 2.910156 -2.113281 2.984375 -1.84375 C 3.054688 -1.570312 3.125 -1.3125 3.1875 -1.0625 C 3.226562 -1.3125 3.285156 -1.570312 3.359375 -1.84375 C 3.441406 -2.125 3.539062 -2.421875 3.65625 -2.734375 L 5.359375 -7.578125 Z M 6.359375 -7.578125 "/></g></g></g><g fill="#a6a6a6" fill-opacity="1"><g transform="translate(194.516079, 288.743535)"><g><path d="M 5.265625 0 L 1.03125 0 L 1.03125 -7.578125 L 5.265625 -7.578125 L 5.265625 -6.734375 L 1.984375 -6.734375 L 1.984375 -4.375 L 5.078125 -4.375 L 5.078125 -3.546875 L 1.984375 -3.546875 L 1.984375 -0.84375 L 5.265625 -0.84375 Z M 5.265625 0 "/></g></g></g><g fill="#a6a6a6" fill-opacity="1"><g transform="translate(204.043268, 288.743535)"><g><path d="M 1.03125 0 L 1.03125 -7.578125 L 1.984375 -7.578125 L 1.984375 -0.84375 L 5.296875 -0.84375 L 5.296875 0 Z M 1.03125 0 "/></g></g></g><g fill="#a6a6a6" fill-opacity="1"><g transform="translate(213.231082, 288.743535)"><g><path d="M 7.640625 -3.796875 C 7.640625 -3.015625 7.503906 -2.332031 7.234375 -1.75 C 6.972656 -1.164062 6.582031 -0.707031 6.0625 -0.375 C 5.539062 -0.0507812 4.898438 0.109375 4.140625 0.109375 C 3.359375 0.109375 2.707031 -0.0507812 2.1875 -0.375 C 1.664062 -0.707031 1.273438 -1.164062 1.015625 -1.75 C 0.765625 -2.332031 0.640625 -3.019531 0.640625 -3.8125 C 0.640625 -4.582031 0.765625 -5.257812 1.015625 -5.84375 C 1.273438 -6.425781 1.664062 -6.878906 2.1875 -7.203125 C 2.707031 -7.523438 3.363281 -7.6875 4.15625 -7.6875 C 4.914062 -7.6875 5.550781 -7.523438 6.0625 -7.203125 C 6.582031 -6.878906 6.972656 -6.425781 7.234375 -5.84375 C 7.503906 -5.257812 7.640625 -4.578125 7.640625 -3.796875 Z M 1.65625 -3.796875 C 1.65625 -2.835938 1.851562 -2.082031 2.25 -1.53125 C 2.65625 -0.988281 3.285156 -0.71875 4.140625 -0.71875 C 5.003906 -0.71875 5.632812 -0.988281 6.03125 -1.53125 C 6.425781 -2.082031 6.625 -2.835938 6.625 -3.796875 C 6.625 -4.753906 6.425781 -5.503906 6.03125 -6.046875 C 5.632812 -6.585938 5.007812 -6.859375 4.15625 -6.859375 C 3.289062 -6.859375 2.65625 -6.585938 2.25 -6.046875 C 1.851562 -5.503906 1.65625 -4.753906 1.65625 -3.796875 Z M 1.65625 -3.796875 "/></g></g></g><g fill="#a6a6a6" fill-opacity="1"><g transform="translate(225.14449, 288.743535)"><g><path d="M 3.03125 -7.578125 C 4.019531 -7.578125 4.738281 -7.378906 5.1875 -6.984375 C 5.644531 -6.597656 5.875 -6.050781 5.875 -5.34375 C 5.875 -4.925781 5.78125 -4.535156 5.59375 -4.171875 C 5.40625 -3.804688 5.085938 -3.507812 4.640625 -3.28125 C 4.203125 -3.0625 3.609375 -2.953125 2.859375 -2.953125 L 1.984375 -2.953125 L 1.984375 0 L 1.03125 0 L 1.03125 -7.578125 Z M 2.953125 -6.765625 L 1.984375 -6.765625 L 1.984375 -3.765625 L 2.75 -3.765625 C 3.46875 -3.765625 4.003906 -3.878906 4.359375 -4.109375 C 4.710938 -4.347656 4.890625 -4.75 4.890625 -5.3125 C 4.890625 -5.789062 4.734375 -6.148438 4.421875 -6.390625 C 4.109375 -6.640625 3.617188 -6.765625 2.953125 -6.765625 Z M 2.953125 -6.765625 "/></g></g></g><g fill="#a6a6a6" fill-opacity="1"><g transform="translate(235.191337, 288.743535)"><g><path d="M 5.265625 0 L 1.03125 0 L 1.03125 -7.578125 L 5.265625 -7.578125 L 5.265625 -6.734375 L 1.984375 -6.734375 L 1.984375 -4.375 L 5.078125 -4.375 L 5.078125 -3.546875 L 1.984375 -3.546875 L 1.984375 -0.84375 L 5.265625 -0.84375 Z M 5.265625 0 "/></g></g></g><g fill="#a6a6a6" fill-opacity="1"><g transform="translate(244.71852, 288.743535)"><g><path d="M 3.125 -7.578125 C 4.0625 -7.578125 4.753906 -7.394531 5.203125 -7.03125 C 5.648438 -6.675781 5.875 -6.140625 5.875 -5.421875 C 5.875 -5.015625 5.800781 -4.675781 5.65625 -4.40625 C 5.507812 -4.144531 5.320312 -3.929688 5.09375 -3.765625 C 4.863281 -3.597656 4.617188 -3.472656 4.359375 -3.390625 L 6.4375 0 L 5.328125 0 L 3.484375 -3.125 L 1.984375 -3.125 L 1.984375 0 L 1.03125 0 L 1.03125 -7.578125 Z M 3.0625 -6.75 L 1.984375 -6.75 L 1.984375 -3.9375 L 3.125 -3.9375 C 3.738281 -3.9375 4.1875 -4.054688 4.46875 -4.296875 C 4.75 -4.546875 4.890625 -4.90625 4.890625 -5.375 C 4.890625 -5.875 4.738281 -6.226562 4.4375 -6.4375 C 4.144531 -6.644531 3.6875 -6.75 3.0625 -6.75 Z M 3.0625 -6.75 "/></g></g></g><g fill="#a6a6a6" fill-opacity="1"><g transform="translate(123.982627, 302.993534)"><g><path d="M 3.125 -7.578125 C 4.0625 -7.578125 4.753906 -7.394531 5.203125 -7.03125 C 5.648438 -6.675781 5.875 -6.140625 5.875 -5.421875 C 5.875 -5.015625 5.800781 -4.675781 5.65625 -4.40625 C 5.507812 -4.144531 5.320312 -3.929688 5.09375 -3.765625 C 4.863281 -3.597656 4.617188 -3.472656 4.359375 -3.390625 L 6.4375 0 L 5.328125 0 L 3.484375 -3.125 L 1.984375 -3.125 L 1.984375 0 L 1.03125 0 L 1.03125 -7.578125 Z M 3.0625 -6.75 L 1.984375 -6.75 L 1.984375 -3.9375 L 3.125 -3.9375 C 3.738281 -3.9375 4.1875 -4.054688 4.46875 -4.296875 C 4.75 -4.546875 4.890625 -4.90625 4.890625 -5.375 C 4.890625 -5.875 4.738281 -6.226562 4.4375 -6.4375 C 4.144531 -6.644531 3.6875 -6.75 3.0625 -6.75 Z M 3.0625 -6.75 "/></g></g></g><g fill="#a6a6a6" fill-opacity="1"><g transform="translate(134.209771, 302.993534)"><g><path d="M 5.78125 0 L 4.875 -2.34375 L 1.875 -2.34375 L 0.96875 0 L 0 0 L 2.953125 -7.609375 L 3.8125 -7.609375 L 6.765625 0 Z M 4.578125 -3.1875 L 3.734375 -5.484375 C 3.710938 -5.535156 3.675781 -5.632812 3.625 -5.78125 C 3.570312 -5.9375 3.523438 -6.09375 3.484375 -6.25 C 3.441406 -6.414062 3.40625 -6.539062 3.375 -6.625 C 3.3125 -6.40625 3.25 -6.191406 3.1875 -5.984375 C 3.132812 -5.773438 3.085938 -5.609375 3.046875 -5.484375 L 2.1875 -3.1875 Z M 4.578125 -3.1875 "/></g></g></g><g fill="#a6a6a6" fill-opacity="1"><g transform="translate(144.617205, 302.993534)"><g><path d="M 1.984375 0 L 1.03125 0 L 1.03125 -7.578125 L 5.265625 -7.578125 L 5.265625 -6.734375 L 1.984375 -6.734375 L 1.984375 -4.046875 L 5.0625 -4.046875 L 5.0625 -3.21875 L 1.984375 -3.21875 Z M 1.984375 0 "/></g></g></g><g fill="#a6a6a6" fill-opacity="1"><g transform="translate(153.751987, 302.993534)"><g><path d="M 5.78125 0 L 4.875 -2.34375 L 1.875 -2.34375 L 0.96875 0 L 0 0 L 2.953125 -7.609375 L 3.8125 -7.609375 L 6.765625 0 Z M 4.578125 -3.1875 L 3.734375 -5.484375 C 3.710938 -5.535156 3.675781 -5.632812 3.625 -5.78125 C 3.570312 -5.9375 3.523438 -6.09375 3.484375 -6.25 C 3.441406 -6.414062 3.40625 -6.539062 3.375 -6.625 C 3.3125 -6.40625 3.25 -6.191406 3.1875 -5.984375 C 3.132812 -5.773438 3.085938 -5.609375 3.046875 -5.484375 L 2.1875 -3.1875 Z M 4.578125 -3.1875 "/></g></g></g><g fill="#a6a6a6" fill-opacity="1"><g transform="translate(164.159421, 302.993534)"><g><path d="M 5.265625 0 L 1.03125 0 L 1.03125 -7.578125 L 5.265625 -7.578125 L 5.265625 -6.734375 L 1.984375 -6.734375 L 1.984375 -4.375 L 5.078125 -4.375 L 5.078125 -3.546875 L 1.984375 -3.546875 L 1.984375 -0.84375 L 5.265625 -0.84375 Z M 5.265625 0 "/></g></g></g><g fill="#a6a6a6" fill-opacity="1"><g transform="translate(173.686609, 302.993534)"><g><path d="M 1.03125 0 L 1.03125 -7.578125 L 1.984375 -7.578125 L 1.984375 -0.84375 L 5.296875 -0.84375 L 5.296875 0 Z M 1.03125 0 "/></g></g></g><g fill="#a6a6a6" fill-opacity="1"><g transform="translate(182.874423, 302.993534)"><g><path d="M 7.09375 -3.859375 C 7.09375 -2.578125 6.742188 -1.613281 6.046875 -0.96875 C 5.347656 -0.320312 4.378906 0 3.140625 0 L 1.03125 0 L 1.03125 -7.578125 L 3.359375 -7.578125 C 4.117188 -7.578125 4.78125 -7.429688 5.34375 -7.140625 C 5.90625 -6.859375 6.335938 -6.441406 6.640625 -5.890625 C 6.941406 -5.347656 7.09375 -4.671875 7.09375 -3.859375 Z M 6.09375 -3.828125 C 6.09375 -4.835938 5.84375 -5.578125 5.34375 -6.046875 C 4.84375 -6.523438 4.132812 -6.765625 3.21875 -6.765625 L 1.984375 -6.765625 L 1.984375 -0.8125 L 3.015625 -0.8125 C 5.066406 -0.8125 6.09375 -1.816406 6.09375 -3.828125 Z M 6.09375 -3.828125 "/></g></g></g><g fill="#a6a6a6" fill-opacity="1"><g transform="translate(194.24696, 302.993534)"><g><path d="M 5.265625 0 L 1.03125 0 L 1.03125 -7.578125 L 5.265625 -7.578125 L 5.265625 -6.734375 L 1.984375 -6.734375 L 1.984375 -4.375 L 5.078125 -4.375 L 5.078125 -3.546875 L 1.984375 -3.546875 L 1.984375 -0.84375 L 5.265625 -0.84375 Z M 5.265625 0 "/></g></g></g><g fill="#a6a6a6" fill-opacity="1"><g transform="translate(203.774149, 302.993534)"><g><path d="M 6.359375 -7.578125 L 3.65625 0 L 2.703125 0 L 0 -7.578125 L 1 -7.578125 L 2.703125 -2.71875 C 2.816406 -2.40625 2.910156 -2.113281 2.984375 -1.84375 C 3.054688 -1.570312 3.125 -1.3125 3.1875 -1.0625 C 3.226562 -1.3125 3.285156 -1.570312 3.359375 -1.84375 C 3.441406 -2.125 3.539062 -2.421875 3.65625 -2.734375 L 5.359375 -7.578125 Z M 6.359375 -7.578125 "/></g></g></g><g fill="#a6a6a6" fill-opacity="1"><g transform="translate(213.767971, 302.993534)"><g><path d="M 0.765625 -0.1875 C 0.617188 -0.269531 0.488281 -0.394531 0.375 -0.5625 C 0.257812 -0.726562 0.195312 -0.890625 0.1875 -1.046875 C 0.1875 -1.140625 0.28125 -1.265625 0.46875 -1.421875 C 0.65625 -1.585938 0.8125 -1.671875 0.9375 -1.671875 C 1.050781 -1.671875 1.195312 -1.582031 1.375 -1.40625 C 1.5625 -1.226562 1.65625 -1.015625 1.65625 -0.765625 C 1.664062 -0.515625 1.582031 -0.332031 1.40625 -0.21875 C 1.25 -0.101562 1.144531 -0.046875 1.09375 -0.046875 C 1.039062 -0.046875 0.929688 -0.09375 0.765625 -0.1875 Z M 0.765625 -0.1875 "/></g></g></g><g fill="#a6a6a6" fill-opacity="1"><g transform="translate(219.148427, 302.993534)"><g><path d="M 4.28125 -6.84375 C 3.46875 -6.84375 2.828125 -6.566406 2.359375 -6.015625 C 1.890625 -5.472656 1.65625 -4.726562 1.65625 -3.78125 C 1.65625 -2.84375 1.867188 -2.097656 2.296875 -1.546875 C 2.734375 -1.003906 3.390625 -0.734375 4.265625 -0.734375 C 4.585938 -0.734375 4.894531 -0.757812 5.1875 -0.8125 C 5.488281 -0.875 5.785156 -0.945312 6.078125 -1.03125 L 6.078125 -0.203125 C 5.796875 -0.0976562 5.503906 -0.0195312 5.203125 0.03125 C 4.898438 0.0820312 4.539062 0.109375 4.125 0.109375 C 3.351562 0.109375 2.707031 -0.046875 2.1875 -0.359375 C 1.675781 -0.679688 1.289062 -1.132812 1.03125 -1.71875 C 0.769531 -2.3125 0.640625 -3.003906 0.640625 -3.796875 C 0.640625 -4.554688 0.78125 -5.226562 1.0625 -5.8125 C 1.34375 -6.394531 1.753906 -6.851562 2.296875 -7.1875 C 2.847656 -7.519531 3.507812 -7.6875 4.28125 -7.6875 C 5.082031 -7.6875 5.78125 -7.535156 6.375 -7.234375 L 6 -6.421875 C 5.757812 -6.535156 5.492188 -6.632812 5.203125 -6.71875 C 4.921875 -6.800781 4.613281 -6.84375 4.28125 -6.84375 Z M 4.28125 -6.84375 "/></g></g></g><g fill="#a6a6a6" fill-opacity="1"><g transform="translate(229.481628, 302.993534)"><g><path d="M 7.640625 -3.796875 C 7.640625 -3.015625 7.503906 -2.332031 7.234375 -1.75 C 6.972656 -1.164062 6.582031 -0.707031 6.0625 -0.375 C 5.539062 -0.0507812 4.898438 0.109375 4.140625 0.109375 C 3.359375 0.109375 2.707031 -0.0507812 2.1875 -0.375 C 1.664062 -0.707031 1.273438 -1.164062 1.015625 -1.75 C 0.765625 -2.332031 0.640625 -3.019531 0.640625 -3.8125 C 0.640625 -4.582031 0.765625 -5.257812 1.015625 -5.84375 C 1.273438 -6.425781 1.664062 -6.878906 2.1875 -7.203125 C 2.707031 -7.523438 3.363281 -7.6875 4.15625 -7.6875 C 4.914062 -7.6875 5.550781 -7.523438 6.0625 -7.203125 C 6.582031 -6.878906 6.972656 -6.425781 7.234375 -5.84375 C 7.503906 -5.257812 7.640625 -4.578125 7.640625 -3.796875 Z M 1.65625 -3.796875 C 1.65625 -2.835938 1.851562 -2.082031 2.25 -1.53125 C 2.65625 -0.988281 3.285156 -0.71875 4.140625 -0.71875 C 5.003906 -0.71875 5.632812 -0.988281 6.03125 -1.53125 C 6.425781 -2.082031 6.625 -2.835938 6.625 -3.796875 C 6.625 -4.753906 6.425781 -5.503906 6.03125 -6.046875 C 5.632812 -6.585938 5.007812 -6.859375 4.15625 -6.859375 C 3.289062 -6.859375 2.65625 -6.585938 2.25 -6.046875 C 1.851562 -5.503906 1.65625 -4.753906 1.65625 -3.796875 Z M 1.65625 -3.796875 "/></g></g></g><g fill="#a6a6a6" fill-opacity="1"><g transform="translate(241.395042, 302.993534)"><g><path d="M 4.375 0 L 1.875 -6.640625 L 1.828125 -6.640625 C 1.859375 -6.421875 1.878906 -6.125 1.890625 -5.75 C 1.898438 -5.382812 1.90625 -5 1.90625 -4.59375 L 1.90625 0 L 1.03125 0 L 1.03125 -7.578125 L 2.4375 -7.578125 L 4.78125 -1.375 L 4.8125 -1.375 L 7.1875 -7.578125 L 8.59375 -7.578125 L 8.59375 0 L 7.65625 0 L 7.65625 -4.65625 C 7.65625 -5.019531 7.660156 -5.382812 7.671875 -5.75 C 7.691406 -6.113281 7.707031 -6.40625 7.71875 -6.625 L 7.6875 -6.625 L 5.15625 0 Z M 4.375 0 "/></g></g></g><g fill="#a6a6a6" fill-opacity="1"><g transform="translate(162.489911, 251.859469)"><g><path d="M 90.988281 -77.613281 L 36.394531 -132.207031 L 18.417969 -114.226562 L 55.25 -77.832031 L 17.539062 -40.121094 L 35.519531 -22.144531 Z M 90.988281 -77.613281 "/></g></g></g><g fill="#a6a6a6" fill-opacity="1"><g transform="translate(203.80483, 66.907432)"><g><path d="M -90.988281 77.613281 L -36.394531 132.207031 L -18.417969 114.226562 L -55.25 77.832031 L -17.539062 40.121094 L -35.519531 22.144531 Z M -90.988281 77.613281 "/></g></g></g></svg>