<svg width="75" height="75" viewBox="0 0 75 75" fill="none" xmlns="http://www.w3.org/2000/svg">
<path fill-rule="evenodd" clip-rule="evenodd" d="M0 37.5C0 58.2107 16.7893 75 37.5 75C58.2107 75 75 58.2107 75 37.5C75 16.7893 58.2107 0 37.5 0C16.7893 0 0 16.7893 0 37.5ZM61.0346 36.0648C61.0297 48.3567 51.0305 58.3583 38.7361 58.3633H38.7268C34.9949 58.362 31.3278 57.4257 28.0709 55.6491L16.25 58.75L19.4135 47.1951C17.4621 43.8133 16.4353 39.9773 16.437 36.0473C16.4418 23.7526 26.445 13.75 38.7358 13.75C44.701 13.7526 50.2997 16.0748 54.5097 20.2897C58.7197 24.5044 61.037 30.1068 61.0346 36.0648Z" fill="white"/>
<path fill-rule="evenodd" clip-rule="evenodd" d="M21.6037 53.4525L28.6184 51.6124L29.2951 52.014C32.1407 53.7027 35.4026 54.5962 38.7284 54.5975H38.7359C48.9511 54.5975 57.2653 46.2831 57.2694 36.0636C57.2713 31.1113 55.3454 26.4549 51.8462 22.9516C48.347 19.4483 43.6935 17.5181 38.7432 17.5164C28.52 17.5164 20.2057 25.8299 20.2017 36.0486C20.2002 39.5506 21.1801 42.9612 23.0353 45.912L23.476 46.6132L21.6037 53.4525ZM49.2067 40.8658C49.5953 41.0536 49.8577 41.1804 49.9698 41.3674C50.109 41.5998 50.109 42.7153 49.645 44.017C49.1805 45.3184 46.9546 46.5063 45.884 46.6662C44.9242 46.8097 43.7094 46.8696 42.3747 46.4454C41.5655 46.1887 40.5277 45.8458 39.1984 45.2717C33.9751 43.0163 30.4452 37.9538 29.778 36.997C29.7313 36.9299 29.6986 36.8831 29.6804 36.8587L29.6759 36.8527C29.381 36.4593 27.4053 33.8232 27.4053 31.095C27.4053 28.5285 28.666 27.1833 29.2463 26.5641C29.2861 26.5217 29.3226 26.4827 29.3554 26.4469C29.8661 25.8891 30.4697 25.7497 30.8411 25.7497C31.2125 25.7497 31.5844 25.7531 31.909 25.7694C31.9491 25.7714 31.9907 25.7712 32.0338 25.7709C32.3585 25.769 32.7633 25.7666 33.1626 26.7258C33.3162 27.095 33.541 27.6423 33.7781 28.2195C34.2576 29.3867 34.7873 30.6763 34.8804 30.8629C35.0198 31.1418 35.1126 31.467 34.9269 31.839C34.899 31.8948 34.8732 31.9475 34.8486 31.9978C34.7091 32.2825 34.6065 32.492 34.3698 32.7684C34.2767 32.8771 34.1804 32.9943 34.0842 33.1115C33.8925 33.3449 33.7009 33.5783 33.534 33.7446C33.255 34.0225 32.9647 34.3239 33.2897 34.8817C33.6147 35.4395 34.7329 37.264 36.3893 38.7414C38.1698 40.3296 39.7173 41.0008 40.5017 41.3411C40.6548 41.4075 40.7789 41.4613 40.8699 41.5069C41.4269 41.7859 41.7519 41.7392 42.077 41.3674C42.402 40.9956 43.4698 39.7405 43.8411 39.1828C44.2125 38.6252 44.5841 38.718 45.0947 38.9039C45.6055 39.09 48.3448 40.4377 48.902 40.7166C49.0108 40.7711 49.1125 40.8202 49.2067 40.8658Z" fill="white"/>
</svg>

